G04*
G04 #@! TF.GenerationSoftware,Altium Limited,Altium Designer,19.1.8 (144)*
G04*
G04 Layer_Color=8388736*
%FSLAX25Y25*%
%MOIN*%
G70*
G01*
G75*
%ADD31R,0.04540X0.04147*%
%ADD32R,0.04540X0.04540*%
%ADD33R,0.04147X0.02178*%
%ADD34R,0.05524X0.06115*%
%ADD35R,0.02178X0.04147*%
%ADD36R,0.06312X0.05524*%
%ADD37R,0.02375X0.04147*%
%ADD38R,0.06115X0.05524*%
%ADD39O,0.02572X0.06509*%
%ADD40R,0.06115X0.05328*%
%ADD41R,0.03950X0.03950*%
%ADD42R,0.05328X0.06312*%
%ADD43R,0.05524X0.06312*%
%ADD44R,0.04343X0.03950*%
%ADD45O,0.01784X0.03753*%
%ADD46C,0.07099*%
%ADD47C,0.12611*%
%ADD48C,0.03556*%
%ADD49C,0.24422*%
D31*
X55413Y25000D02*
D03*
Y31299D02*
D03*
X82677Y31102D02*
D03*
Y24803D02*
D03*
D32*
X54331Y56102D02*
D03*
Y50197D02*
D03*
D33*
X114567Y22835D02*
D03*
Y17717D02*
D03*
X105905D02*
D03*
Y20276D02*
D03*
Y22835D02*
D03*
D34*
X161221Y45276D02*
D03*
X167913D02*
D03*
X167913Y55118D02*
D03*
X161221D02*
D03*
X142323Y84646D02*
D03*
X135630D02*
D03*
D35*
X119882Y75984D02*
D03*
X114764D02*
D03*
Y84646D02*
D03*
X117323D02*
D03*
X119882D02*
D03*
D36*
X56693Y87992D02*
D03*
Y81299D02*
D03*
D37*
X167126Y74114D02*
D03*
X172244D02*
D03*
Y65256D02*
D03*
X169685D02*
D03*
X167126D02*
D03*
D38*
X78347Y81299D02*
D03*
Y87992D02*
D03*
X66535Y87992D02*
D03*
Y81299D02*
D03*
X96457Y25394D02*
D03*
Y32087D02*
D03*
X68898Y25394D02*
D03*
Y32087D02*
D03*
D39*
X67815Y49213D02*
D03*
X70374D02*
D03*
X72933D02*
D03*
X75492D02*
D03*
X67815Y66536D02*
D03*
X70374D02*
D03*
X72933D02*
D03*
X75492D02*
D03*
D40*
X98032Y102953D02*
D03*
Y96063D02*
D03*
X86614Y103051D02*
D03*
Y96161D02*
D03*
D41*
X114370Y96850D02*
D03*
X108465D02*
D03*
X114370Y113386D02*
D03*
X108465D02*
D03*
D42*
X135433Y112205D02*
D03*
X142520D02*
D03*
D43*
X135630Y98425D02*
D03*
X142323D02*
D03*
D44*
X141142Y59055D02*
D03*
X129724Y55315D02*
D03*
Y62795D02*
D03*
D45*
X102559Y41929D02*
D03*
X104527D02*
D03*
X106496D02*
D03*
X108465D02*
D03*
X102559Y54134D02*
D03*
X104527D02*
D03*
X106496D02*
D03*
X108465D02*
D03*
D46*
X131890Y35118D02*
D03*
X143701D02*
D03*
X44961Y81299D02*
D03*
Y69488D02*
D03*
Y57677D02*
D03*
Y45866D02*
D03*
D47*
X137795Y18110D02*
D03*
X27953Y54331D02*
D03*
Y72835D02*
D03*
D48*
X72342Y76279D02*
D03*
X49409Y30315D02*
D03*
X62205Y37303D02*
D03*
X81890Y62992D02*
D03*
X62205Y41732D02*
D03*
Y75197D02*
D03*
X81496Y49606D02*
D03*
X72441Y84646D02*
D03*
X110236Y12992D02*
D03*
X114567Y48031D02*
D03*
X96457Y51181D02*
D03*
Y45276D02*
D03*
X119291Y55118D02*
D03*
X124016Y59449D02*
D03*
X159843Y62205D02*
D03*
X108268Y86221D02*
D03*
X153937Y55118D02*
D03*
X89370Y14567D02*
D03*
X49508Y25098D02*
D03*
D49*
X24803Y112992D02*
D03*
X171653D02*
D03*
Y14961D02*
D03*
X24409Y15748D02*
D03*
M02*
