G04*
G04 #@! TF.GenerationSoftware,Altium Limited,Altium Designer,19.1.8 (144)*
G04*
G04 Layer_Color=8388736*
%FSLAX25Y25*%
%MOIN*%
G70*
G01*
G75*
%ADD16C,0.00394*%
%ADD17C,0.00394*%
%ADD18C,0.00197*%
D16*
X9449Y112598D02*
D03*
X186614Y15748D02*
D03*
X9449Y112598D02*
D03*
X186614Y15748D02*
D03*
D17*
X170866Y-0D02*
G03*
X186614Y15748I0J15748D01*
G01*
X9449Y15748D02*
G03*
X25197Y0I15748J0D01*
G01*
X186614Y112598D02*
G03*
X170866Y128347I-15748J0D01*
G01*
X25197D02*
G03*
X9449Y112598I0J-15748D01*
G01*
X25197Y128347D02*
X170866D01*
X9449Y15748D02*
Y112598D01*
X25197Y0D02*
X170866D01*
X186614Y15748D02*
Y112598D01*
X170866Y-0D02*
G03*
X186614Y15748I0J15748D01*
G01*
X9449Y15748D02*
G03*
X25197Y0I15748J0D01*
G01*
X186614Y112598D02*
G03*
X170866Y128347I-15748J0D01*
G01*
X25197D02*
G03*
X9449Y112598I0J-15748D01*
G01*
X25197Y128347D02*
X170866D01*
X9449Y15748D02*
Y112598D01*
X25197Y0D02*
X170866D01*
X186614Y15748D02*
Y112598D01*
X71063Y55315D02*
G03*
X71063Y55315I-1969J0D01*
G01*
X106102Y46457D02*
G03*
X106102Y46457I-1575J0D01*
G01*
X89370Y58760D02*
Y65650D01*
X85630Y58760D02*
Y65650D01*
X89370D01*
X85630Y58760D02*
X89370D01*
X53543Y24705D02*
X57284D01*
X53543Y31594D02*
X57284D01*
X53543Y24705D02*
Y31594D01*
X57284Y24705D02*
Y31594D01*
X80807Y31398D02*
X84547D01*
X80807Y24508D02*
X84547D01*
Y31398D01*
X80807Y24508D02*
Y31398D01*
X52461Y56595D02*
X56201D01*
X52461Y49705D02*
X56201D01*
Y56595D01*
X52461Y49705D02*
Y56595D01*
X107480Y16043D02*
X112992D01*
X107480Y24508D02*
X112992D01*
Y16043D02*
Y24508D01*
X107480Y16043D02*
Y24508D01*
X160236Y47933D02*
X168898D01*
X160236Y42618D02*
X168898D01*
X160236D02*
Y47933D01*
X168898Y42618D02*
Y47933D01*
X113091Y77559D02*
Y83071D01*
X121555Y77559D02*
Y83071D01*
X113091Y77559D02*
X121555D01*
X113091Y83071D02*
X121555D01*
X54035Y88779D02*
X59350D01*
X54035Y80512D02*
X59350D01*
Y88779D01*
X54035Y80512D02*
Y88779D01*
X173917Y66929D02*
Y72441D01*
X165453Y66929D02*
Y72441D01*
X173917D01*
X165453Y66929D02*
X173917D01*
X75689Y80315D02*
X81004D01*
X75689Y88976D02*
X81004D01*
X75689Y80315D02*
Y88976D01*
X81004Y80315D02*
Y88976D01*
X63878D02*
X69193D01*
X63878Y80315D02*
X69193D01*
Y88976D01*
X63878Y80315D02*
Y88976D01*
X65551Y51772D02*
X77756D01*
X65551Y63976D02*
X77756D01*
X65551Y51772D02*
Y63976D01*
X77756Y51772D02*
Y63976D01*
X95374Y103839D02*
X100689D01*
X95374Y95177D02*
X100689D01*
Y103839D01*
X95374Y95177D02*
Y103839D01*
X83957Y103937D02*
X89272D01*
X83957Y95276D02*
X89272D01*
Y103937D01*
X83957Y95276D02*
Y103937D01*
X134685Y109449D02*
Y114961D01*
X143268Y109449D02*
Y114961D01*
X134685D02*
X143268D01*
X134685Y109449D02*
X143268D01*
X160236Y52461D02*
X168898D01*
X160236Y57775D02*
X168898D01*
Y52461D02*
Y57775D01*
X160236Y52461D02*
Y57775D01*
X134646Y81988D02*
X143307D01*
X134646Y87303D02*
X143307D01*
Y81988D02*
Y87303D01*
X134646Y81988D02*
Y87303D01*
X134843Y95768D02*
Y101083D01*
X143110Y95768D02*
Y101083D01*
X134843D02*
X143110D01*
X134843Y95768D02*
X143110D01*
X93799Y24409D02*
Y33071D01*
X99114Y24409D02*
Y33071D01*
X93799Y24409D02*
X99114D01*
X93799Y33071D02*
X99114D01*
X66240Y24409D02*
Y33071D01*
X71555Y24409D02*
Y33071D01*
X66240Y24409D02*
X71555D01*
X66240Y33071D02*
X71555D01*
X132677Y53071D02*
X138189D01*
X132677Y65039D02*
X138189D01*
Y53071D02*
Y65039D01*
X132677Y53071D02*
Y65039D01*
X101378Y43307D02*
X109646D01*
X101378Y52756D02*
X109646D01*
X101378Y43307D02*
Y52756D01*
X109646Y43307D02*
Y52756D01*
X85630Y62205D02*
X89370D01*
X87500Y60335D02*
Y64075D01*
X55413Y26280D02*
Y30020D01*
X53543Y28150D02*
X57284D01*
X82677Y26083D02*
Y29823D01*
X80807Y27953D02*
X84547D01*
X54331Y51279D02*
Y55020D01*
X52461Y53150D02*
X56201D01*
X110236Y18307D02*
Y22244D01*
X108268Y20276D02*
X112205D01*
X164567Y43307D02*
Y47244D01*
X162598Y45276D02*
X166535D01*
X115354Y80315D02*
X119291D01*
X117323Y78347D02*
Y82284D01*
X56693Y82677D02*
Y86614D01*
X54724Y84646D02*
X58661D01*
X167717Y69685D02*
X171653D01*
X169685Y67716D02*
Y71653D01*
X78347Y82677D02*
Y86614D01*
X76378Y84646D02*
X80315D01*
X66535Y82677D02*
Y86614D01*
X64567Y84646D02*
X68504D01*
X71654Y55905D02*
Y59842D01*
X69685Y57874D02*
X73622D01*
X98032Y97539D02*
Y101476D01*
X96063Y99508D02*
X100000D01*
X86614Y97638D02*
Y101575D01*
X84646Y99606D02*
X88583D01*
X137008Y112205D02*
X140945D01*
X138977Y110236D02*
Y114173D01*
X164567Y53149D02*
Y57086D01*
X162598Y55118D02*
X166535D01*
X138976Y82677D02*
Y86614D01*
X137008Y84646D02*
X140945D01*
X137008Y98425D02*
X140945D01*
X138977Y96457D02*
Y100394D01*
X94488Y28740D02*
X98425D01*
X96457Y26772D02*
Y30709D01*
X66929Y28740D02*
X70866D01*
X68898Y26772D02*
Y30709D01*
X135433Y57087D02*
Y61024D01*
X133465Y59055D02*
X137402D01*
X105512Y46063D02*
Y50000D01*
X103543Y48031D02*
X107480D01*
D18*
X90453Y56299D02*
Y68110D01*
X84547Y56299D02*
Y68110D01*
X90453D01*
X84547Y56299D02*
X90453D01*
X52461Y22244D02*
X58366D01*
X52461Y34055D02*
X58366D01*
X52461Y22244D02*
Y34055D01*
X58366Y22244D02*
Y34055D01*
X79724Y33858D02*
X85630D01*
X79724Y22047D02*
X85630D01*
Y33858D01*
X79724Y22047D02*
Y33858D01*
X51378Y59055D02*
X57284D01*
X51378Y47244D02*
X57284D01*
Y59055D01*
X51378Y47244D02*
Y59055D01*
X103150Y14961D02*
X117323D01*
X103150Y25591D02*
X117323D01*
Y14961D02*
Y25591D01*
X103150Y14961D02*
Y25591D01*
X157874Y49016D02*
X171260D01*
X157874Y41535D02*
X171260D01*
X157874D02*
Y49016D01*
X171260Y41535D02*
Y49016D01*
X112008Y73228D02*
Y87402D01*
X122638Y73228D02*
Y87402D01*
X112008Y73228D02*
X122638D01*
X112008Y87402D02*
X122638D01*
X52953Y91339D02*
X60433D01*
X52953Y77953D02*
X60433D01*
Y91339D01*
X52953Y77953D02*
Y91339D01*
X175000Y62598D02*
Y76772D01*
X164370Y62598D02*
Y76772D01*
X175000D01*
X164370Y62598D02*
X175000D01*
X74606Y77953D02*
X82087D01*
X74606Y91339D02*
X82087D01*
X74606Y77953D02*
Y91339D01*
X82087Y77953D02*
Y91339D01*
X62795Y91339D02*
X70276D01*
X62795Y77953D02*
X70276D01*
Y91339D01*
X62795Y77953D02*
Y91339D01*
X64567Y45472D02*
X78740D01*
X64567Y70275D02*
X78740D01*
X64567Y45472D02*
Y70275D01*
X78740Y45472D02*
Y70275D01*
X94291Y106201D02*
X101772D01*
X94291Y92815D02*
X101772D01*
Y106201D01*
X94291Y92815D02*
Y106201D01*
X82874Y106299D02*
X90354D01*
X82874Y92913D02*
X90354D01*
Y106299D01*
X82874Y92913D02*
Y106299D01*
X132283Y108465D02*
Y115945D01*
X145669Y108465D02*
Y115945D01*
X132283D02*
X145669D01*
X132283Y108465D02*
X145669D01*
X157874Y51378D02*
X171260D01*
X157874Y58858D02*
X171260D01*
Y51378D02*
Y58858D01*
X157874Y51378D02*
Y58858D01*
X132283Y80906D02*
X145669D01*
X132283Y88386D02*
X145669D01*
Y80906D02*
Y88386D01*
X132283Y80906D02*
Y88386D01*
X132283Y94685D02*
Y102165D01*
X145669Y94685D02*
Y102165D01*
X132283D02*
X145669D01*
X132283Y94685D02*
X145669D01*
X92716Y22047D02*
Y35433D01*
X100197Y22047D02*
Y35433D01*
X92716Y22047D02*
X100197D01*
X92716Y35433D02*
X100197D01*
X65158Y22047D02*
Y35433D01*
X72638Y22047D02*
Y35433D01*
X65158Y22047D02*
X72638D01*
X65158Y35433D02*
X72638D01*
X127854Y52165D02*
X143012D01*
X127854Y65945D02*
X143012D01*
Y52165D02*
Y65945D01*
X127854Y52165D02*
Y65945D01*
X100394Y39272D02*
X110630D01*
X100394Y56791D02*
X110630D01*
X100394Y39272D02*
Y56791D01*
X110630Y39272D02*
Y56791D01*
M02*
