G04*
G04 #@! TF.GenerationSoftware,Altium Limited,Altium Designer,19.1.8 (144)*
G04*
G04 Layer_Color=16711935*
%FSLAX25Y25*%
%MOIN*%
G70*
G01*
G75*
%ADD57C,0.00394*%
D57*
X71063Y55315D02*
G03*
X71063Y55315I-1969J0D01*
G01*
X106102Y46457D02*
G03*
X106102Y46457I-1575J0D01*
G01*
X53543Y24705D02*
X57284D01*
X53543Y31594D02*
X57284D01*
X53543Y24705D02*
Y31594D01*
X57284Y24705D02*
Y31594D01*
X80807Y31398D02*
X84547D01*
X80807Y24508D02*
X84547D01*
Y31398D01*
X80807Y24508D02*
Y31398D01*
X52461Y56595D02*
X56201D01*
X52461Y49705D02*
X56201D01*
Y56595D01*
X52461Y49705D02*
Y56595D01*
X107480Y16043D02*
X112992D01*
X107480Y24508D02*
X112992D01*
Y16043D02*
Y24508D01*
X107480Y16043D02*
Y24508D01*
X160236Y47933D02*
X168898D01*
X160236Y42618D02*
X168898D01*
X160236D02*
Y47933D01*
X168898Y42618D02*
Y47933D01*
X113091Y77559D02*
Y83071D01*
X121555Y77559D02*
Y83071D01*
X113091Y77559D02*
X121555D01*
X113091Y83071D02*
X121555D01*
X54035Y88779D02*
X59350D01*
X54035Y80512D02*
X59350D01*
Y88779D01*
X54035Y80512D02*
Y88779D01*
X173917Y66929D02*
Y72441D01*
X165453Y66929D02*
Y72441D01*
X173917D01*
X165453Y66929D02*
X173917D01*
X75689Y80315D02*
X81004D01*
X75689Y88976D02*
X81004D01*
X75689Y80315D02*
Y88976D01*
X81004Y80315D02*
Y88976D01*
X63878D02*
X69193D01*
X63878Y80315D02*
X69193D01*
Y88976D01*
X63878Y80315D02*
Y88976D01*
X65551Y51772D02*
X77756D01*
X65551Y63976D02*
X77756D01*
X65551Y51772D02*
Y63976D01*
X77756Y51772D02*
Y63976D01*
X95374Y103839D02*
X100689D01*
X95374Y95177D02*
X100689D01*
Y103839D01*
X95374Y95177D02*
Y103839D01*
X83957Y103937D02*
X89272D01*
X83957Y95276D02*
X89272D01*
Y103937D01*
X83957Y95276D02*
Y103937D01*
X134685Y109449D02*
Y114961D01*
X143268Y109449D02*
Y114961D01*
X134685D02*
X143268D01*
X134685Y109449D02*
X143268D01*
X160236Y52461D02*
X168898D01*
X160236Y57775D02*
X168898D01*
Y52461D02*
Y57775D01*
X160236Y52461D02*
Y57775D01*
X134646Y81988D02*
X143307D01*
X134646Y87303D02*
X143307D01*
Y81988D02*
Y87303D01*
X134646Y81988D02*
Y87303D01*
X134843Y95768D02*
Y101083D01*
X143110Y95768D02*
Y101083D01*
X134843D02*
X143110D01*
X134843Y95768D02*
X143110D01*
X93799Y24409D02*
Y33071D01*
X99114Y24409D02*
Y33071D01*
X93799Y24409D02*
X99114D01*
X93799Y33071D02*
X99114D01*
X66240Y24409D02*
Y33071D01*
X71555Y24409D02*
Y33071D01*
X66240Y24409D02*
X71555D01*
X66240Y33071D02*
X71555D01*
X132677Y53071D02*
X138189D01*
X132677Y65039D02*
X138189D01*
Y53071D02*
Y65039D01*
X132677Y53071D02*
Y65039D01*
X101378Y43307D02*
X109646D01*
X101378Y52756D02*
X109646D01*
X101378Y43307D02*
Y52756D01*
X109646Y43307D02*
Y52756D01*
M02*
