G04*
G04 #@! TF.GenerationSoftware,Altium Limited,Altium Designer,19.1.8 (144)*
G04*
G04 Layer_Physical_Order=2*
G04 Layer_Color=16711680*
%FSLAX25Y25*%
%MOIN*%
G70*
G01*
G75*
%ADD12C,0.00787*%
%ADD13C,0.01000*%
%ADD16C,0.00394*%
%ADD17C,0.00394*%
%ADD18C,0.00197*%
%ADD56C,0.06299*%
%ADD57C,0.11811*%
%ADD58C,0.02756*%
%ADD59C,0.23622*%
G36*
X164286Y124854D02*
X164710Y124284D01*
X164615Y123793D01*
X163313Y122995D01*
X161779Y121685D01*
X160470Y120152D01*
X159416Y118432D01*
X158644Y116569D01*
X158174Y114609D01*
X158055Y113098D01*
X170866D01*
Y112598D01*
X171366D01*
Y99787D01*
X172876Y99906D01*
X174837Y100377D01*
X176700Y101148D01*
X178420Y102202D01*
X179692Y103289D01*
X180341Y103255D01*
X183522Y98975D01*
Y24906D01*
X182011Y22873D01*
X181511Y22896D01*
X181263Y23301D01*
X179953Y24835D01*
X178420Y26144D01*
X176700Y27198D01*
X174837Y27970D01*
X172876Y28440D01*
X171366Y28559D01*
Y15748D01*
X170866D01*
Y15248D01*
X158055D01*
X158174Y13738D01*
X158644Y11777D01*
X159416Y9914D01*
X160470Y8195D01*
X161779Y6661D01*
X163313Y5352D01*
X164111Y4863D01*
X163975Y4381D01*
X32088D01*
X31952Y4863D01*
X32750Y5352D01*
X34284Y6661D01*
X35593Y8195D01*
X36647Y9914D01*
X37418Y11777D01*
X37889Y13738D01*
X38008Y15248D01*
X25197D01*
Y15748D01*
X24697D01*
Y28559D01*
X23187Y28440D01*
X21226Y27970D01*
X19363Y27198D01*
X17643Y26144D01*
X16110Y24835D01*
X15472Y24088D01*
X14972Y24104D01*
X13050Y26691D01*
Y98975D01*
X16082Y103055D01*
X16579Y103111D01*
X17643Y102202D01*
X19363Y101148D01*
X21226Y100377D01*
X23187Y99906D01*
X24697Y99787D01*
Y112598D01*
X25197D01*
Y113098D01*
X38008D01*
X37889Y114609D01*
X37418Y116569D01*
X36647Y118432D01*
X35593Y120152D01*
X34284Y121685D01*
X32750Y122995D01*
X31798Y123579D01*
X31703Y124069D01*
X32286Y124854D01*
X164286D01*
Y124854D01*
D02*
G37*
%LPC*%
G36*
X170366Y112098D02*
X158055D01*
X158174Y110588D01*
X158644Y108627D01*
X159416Y106764D01*
X160470Y105045D01*
X161779Y103512D01*
X163313Y102202D01*
X165032Y101148D01*
X166895Y100377D01*
X168856Y99906D01*
X170366Y99787D01*
Y112098D01*
D02*
G37*
G36*
X38008D02*
X25697D01*
Y99787D01*
X27207Y99906D01*
X29168Y100377D01*
X31031Y101148D01*
X32750Y102202D01*
X34284Y103512D01*
X35593Y105045D01*
X36647Y106764D01*
X37418Y108627D01*
X37889Y110588D01*
X38008Y112098D01*
D02*
G37*
G36*
X72941Y86971D02*
Y85146D01*
X74766D01*
X74681Y85574D01*
X74155Y86360D01*
X73369Y86886D01*
X72941Y86971D01*
D02*
G37*
G36*
X71941D02*
X71513Y86886D01*
X70727Y86360D01*
X70201Y85574D01*
X70116Y85146D01*
X71941D01*
Y86971D01*
D02*
G37*
G36*
X74766Y84146D02*
X72941D01*
Y82321D01*
X73369Y82406D01*
X74155Y82931D01*
X74681Y83718D01*
X74766Y84146D01*
D02*
G37*
G36*
X71941D02*
X70116D01*
X70201Y83718D01*
X70727Y82931D01*
X71513Y82406D01*
X71941Y82321D01*
Y84146D01*
D02*
G37*
G36*
X45461Y85419D02*
Y81799D01*
X49080D01*
X49003Y82383D01*
X48585Y83392D01*
X47920Y84259D01*
X47053Y84924D01*
X46044Y85342D01*
X45461Y85419D01*
D02*
G37*
G36*
X44461D02*
X43877Y85342D01*
X42868Y84924D01*
X42001Y84259D01*
X41336Y83392D01*
X40918Y82383D01*
X40841Y81799D01*
X44461D01*
Y85419D01*
D02*
G37*
G36*
X49080Y80799D02*
X45461D01*
Y77180D01*
X46044Y77257D01*
X47053Y77675D01*
X47920Y78340D01*
X48585Y79207D01*
X49003Y80216D01*
X49080Y80799D01*
D02*
G37*
G36*
X44461D02*
X40841D01*
X40918Y80216D01*
X41336Y79207D01*
X42001Y78340D01*
X42868Y77675D01*
X43877Y77257D01*
X44461Y77180D01*
Y80799D01*
D02*
G37*
G36*
X27953Y79774D02*
X26599Y79640D01*
X25297Y79246D01*
X24098Y78604D01*
X23046Y77741D01*
X22183Y76690D01*
X21542Y75490D01*
X21147Y74189D01*
X21014Y72835D01*
X21147Y71481D01*
X21542Y70179D01*
X22183Y68980D01*
X23046Y67928D01*
X24098Y67065D01*
X25297Y66424D01*
X26599Y66029D01*
X27953Y65896D01*
X29307Y66029D01*
X30608Y66424D01*
X31808Y67065D01*
X32859Y67928D01*
X33722Y68980D01*
X34363Y70179D01*
X34758Y71481D01*
X34892Y72835D01*
X34758Y74189D01*
X34363Y75490D01*
X33722Y76690D01*
X32859Y77741D01*
X31808Y78604D01*
X30608Y79246D01*
X29307Y79640D01*
X27953Y79774D01*
D02*
G37*
G36*
X44961Y73674D02*
X43877Y73531D01*
X42868Y73113D01*
X42001Y72448D01*
X41336Y71581D01*
X40918Y70572D01*
X40775Y69488D01*
X40918Y68405D01*
X41336Y67396D01*
X42001Y66529D01*
X42868Y65864D01*
X43877Y65446D01*
X44961Y65303D01*
X46044Y65446D01*
X47053Y65864D01*
X47920Y66529D01*
X48585Y67396D01*
X49003Y68405D01*
X49146Y69488D01*
X49003Y70572D01*
X48585Y71581D01*
X47920Y72448D01*
X47053Y73113D01*
X46044Y73531D01*
X44961Y73674D01*
D02*
G37*
G36*
X159843Y64629D02*
X158915Y64445D01*
X158128Y63919D01*
X158004Y63734D01*
X149213D01*
X148627Y63618D01*
X148131Y63286D01*
X145823Y60978D01*
X125854D01*
X125730Y61163D01*
X124944Y61689D01*
X124016Y61873D01*
X123088Y61689D01*
X122301Y61163D01*
X121776Y60377D01*
X121591Y59449D01*
X121776Y58521D01*
X122301Y57734D01*
X123088Y57209D01*
X124016Y57024D01*
X124944Y57209D01*
X125730Y57734D01*
X125854Y57919D01*
X146457D01*
X147042Y58036D01*
X147538Y58367D01*
X149846Y60675D01*
X158004D01*
X158128Y60490D01*
X158915Y59965D01*
X159843Y59780D01*
X160770Y59965D01*
X161557Y60490D01*
X162083Y61277D01*
X162267Y62205D01*
X162083Y63133D01*
X161557Y63919D01*
X160770Y64445D01*
X159843Y64629D01*
D02*
G37*
G36*
X154437Y57443D02*
Y55618D01*
X156262D01*
X156177Y56046D01*
X155651Y56832D01*
X154865Y57358D01*
X154437Y57443D01*
D02*
G37*
G36*
X153437D02*
X153009Y57358D01*
X152223Y56832D01*
X151697Y56046D01*
X151612Y55618D01*
X153437D01*
Y57443D01*
D02*
G37*
G36*
X119791D02*
Y55618D01*
X121616D01*
X121531Y56046D01*
X121006Y56832D01*
X120219Y57358D01*
X119791Y57443D01*
D02*
G37*
G36*
X118791D02*
X118363Y57358D01*
X117577Y56832D01*
X117051Y56046D01*
X116966Y55618D01*
X118791D01*
Y57443D01*
D02*
G37*
G36*
X44961Y61863D02*
X43877Y61720D01*
X42868Y61302D01*
X42001Y60637D01*
X41336Y59770D01*
X40918Y58760D01*
X40775Y57677D01*
X40918Y56594D01*
X41336Y55585D01*
X42001Y54718D01*
X42868Y54053D01*
X43877Y53635D01*
X44961Y53492D01*
X46044Y53635D01*
X47053Y54053D01*
X47920Y54718D01*
X48585Y55585D01*
X49003Y56594D01*
X49146Y57677D01*
X49003Y58760D01*
X48585Y59770D01*
X47920Y60637D01*
X47053Y61302D01*
X46044Y61720D01*
X44961Y61863D01*
D02*
G37*
G36*
X156262Y54618D02*
X154437D01*
Y52793D01*
X154865Y52878D01*
X155651Y53404D01*
X156177Y54190D01*
X156262Y54618D01*
D02*
G37*
G36*
X153437D02*
X151612D01*
X151697Y54190D01*
X152223Y53404D01*
X153009Y52878D01*
X153437Y52793D01*
Y54618D01*
D02*
G37*
G36*
X121616D02*
X119791D01*
Y52793D01*
X120219Y52878D01*
X121006Y53404D01*
X121531Y54190D01*
X121616Y54618D01*
D02*
G37*
G36*
X118791D02*
X116966D01*
X117051Y54190D01*
X117577Y53404D01*
X118363Y52878D01*
X118791Y52793D01*
Y54618D01*
D02*
G37*
G36*
X72342Y78704D02*
X71415Y78519D01*
X70628Y77994D01*
X70103Y77207D01*
X69918Y76279D01*
X70103Y75352D01*
X70628Y74565D01*
X70813Y74441D01*
Y71358D01*
X70929Y70773D01*
X71261Y70277D01*
X80164Y61374D01*
Y56661D01*
X79979Y56537D01*
X79453Y55751D01*
X79268Y54823D01*
X79453Y53895D01*
X79979Y53108D01*
X80765Y52583D01*
X81237Y52489D01*
Y51979D01*
X80568Y51846D01*
X79782Y51321D01*
X79256Y50534D01*
X79171Y50106D01*
X83821D01*
X83736Y50534D01*
X83210Y51321D01*
X82424Y51846D01*
X81952Y51940D01*
Y52450D01*
X82621Y52583D01*
X83407Y53108D01*
X83933Y53895D01*
X84117Y54823D01*
X83933Y55751D01*
X83407Y56537D01*
X83222Y56661D01*
Y62008D01*
X83106Y62593D01*
X82774Y63089D01*
X73872Y71992D01*
Y74441D01*
X74057Y74565D01*
X74582Y75352D01*
X74767Y76279D01*
X74582Y77207D01*
X74057Y77994D01*
X73270Y78519D01*
X72342Y78704D01*
D02*
G37*
G36*
X62205Y77621D02*
X61277Y77437D01*
X60490Y76911D01*
X59965Y76125D01*
X59780Y75197D01*
X59965Y74269D01*
X60490Y73482D01*
X60784Y73286D01*
Y46457D01*
X60892Y45913D01*
X61200Y45452D01*
X62775Y43877D01*
X62794Y43864D01*
X62908Y43187D01*
X62622Y42759D01*
X62438Y41831D01*
X62622Y40903D01*
X62882Y40514D01*
X62615Y40014D01*
X57579D01*
X56994Y39897D01*
X56497Y39566D01*
X49628Y32696D01*
X49409Y32739D01*
X48482Y32555D01*
X47695Y32029D01*
X47170Y31243D01*
X46985Y30315D01*
X47170Y29387D01*
X47695Y28600D01*
X48482Y28075D01*
X49101Y27952D01*
Y27442D01*
X48580Y27338D01*
X47793Y26813D01*
X47268Y26026D01*
X47183Y25598D01*
X51833D01*
X51748Y26026D01*
X51222Y26813D01*
X50436Y27338D01*
X49817Y27462D01*
Y27971D01*
X50337Y28075D01*
X51124Y28600D01*
X51649Y29387D01*
X51834Y30315D01*
X51791Y30533D01*
X58212Y36955D01*
X66961D01*
X67085Y36770D01*
X67871Y36244D01*
X68799Y36060D01*
X69727Y36244D01*
X70514Y36770D01*
X71039Y37556D01*
X71224Y38484D01*
X71039Y39412D01*
X70779Y39801D01*
X71046Y40301D01*
X92419D01*
X92913Y40203D01*
X93499Y40319D01*
X93995Y40651D01*
X96238Y42895D01*
X96457Y42851D01*
X97385Y43036D01*
X98171Y43561D01*
X98697Y44348D01*
X98881Y45276D01*
X98697Y46203D01*
X98171Y46990D01*
X97385Y47516D01*
X96457Y47700D01*
X95529Y47516D01*
X95466Y47473D01*
X95147Y47862D01*
X96111Y48825D01*
X96457Y48757D01*
X97385Y48941D01*
X98171Y49467D01*
X98697Y50253D01*
X98881Y51181D01*
X98697Y52109D01*
X98171Y52895D01*
X97385Y53421D01*
X96457Y53606D01*
X95529Y53421D01*
X94742Y52895D01*
X94217Y52109D01*
X94032Y51181D01*
X94101Y50835D01*
X89569Y46303D01*
X64368D01*
X63626Y47045D01*
Y73286D01*
X63919Y73482D01*
X64445Y74269D01*
X64629Y75197D01*
X64445Y76125D01*
X63919Y76911D01*
X63133Y77437D01*
X62205Y77621D01*
D02*
G37*
G36*
X27953Y61270D02*
X26599Y61136D01*
X25297Y60742D01*
X24098Y60100D01*
X23046Y59237D01*
X22183Y58186D01*
X21542Y56986D01*
X21147Y55685D01*
X21014Y54331D01*
X21147Y52977D01*
X21542Y51675D01*
X22183Y50476D01*
X23046Y49424D01*
X24098Y48561D01*
X25297Y47920D01*
X26599Y47525D01*
X27953Y47392D01*
X29307Y47525D01*
X30608Y47920D01*
X31808Y48561D01*
X32859Y49424D01*
X33722Y50476D01*
X34363Y51675D01*
X34758Y52977D01*
X34892Y54331D01*
X34758Y55685D01*
X34363Y56986D01*
X33722Y58186D01*
X32859Y59237D01*
X31808Y60100D01*
X30608Y60742D01*
X29307Y61136D01*
X27953Y61270D01*
D02*
G37*
G36*
X83821Y49106D02*
X81996D01*
Y47281D01*
X82424Y47366D01*
X83210Y47892D01*
X83736Y48678D01*
X83821Y49106D01*
D02*
G37*
G36*
X80996D02*
X79171D01*
X79256Y48678D01*
X79782Y47892D01*
X80568Y47366D01*
X80996Y47281D01*
Y49106D01*
D02*
G37*
G36*
X108268Y88645D02*
X107340Y88460D01*
X106553Y87935D01*
X106028Y87148D01*
X105843Y86221D01*
X106028Y85293D01*
X106553Y84506D01*
X106738Y84382D01*
Y74803D01*
X106855Y74218D01*
X107186Y73722D01*
X113038Y67870D01*
Y49869D01*
X112853Y49746D01*
X112327Y48959D01*
X112142Y48031D01*
X112186Y47813D01*
X109155Y44782D01*
X108823Y44286D01*
X108707Y43701D01*
Y14830D01*
X108522Y14706D01*
X107996Y13920D01*
X107812Y12992D01*
X107996Y12064D01*
X108522Y11278D01*
X109308Y10752D01*
X110236Y10568D01*
X111164Y10752D01*
X111951Y11278D01*
X112476Y12064D01*
X112661Y12992D01*
X112476Y13920D01*
X111951Y14706D01*
X111766Y14830D01*
Y43067D01*
X114349Y45650D01*
X114567Y45607D01*
X115495Y45792D01*
X116281Y46317D01*
X116807Y47104D01*
X116991Y48031D01*
X116807Y48959D01*
X116281Y49746D01*
X116096Y49869D01*
Y68504D01*
X115980Y69089D01*
X115648Y69585D01*
X109797Y75437D01*
Y84382D01*
X109982Y84506D01*
X110508Y85293D01*
X110692Y86221D01*
X110508Y87148D01*
X109982Y87935D01*
X109196Y88460D01*
X108268Y88645D01*
D02*
G37*
G36*
X44961Y50052D02*
X43877Y49909D01*
X42868Y49491D01*
X42001Y48826D01*
X41336Y47959D01*
X40918Y46949D01*
X40775Y45866D01*
X40918Y44783D01*
X41336Y43773D01*
X42001Y42907D01*
X42868Y42242D01*
X43877Y41823D01*
X44961Y41681D01*
X46044Y41823D01*
X47053Y42242D01*
X47920Y42907D01*
X48585Y43773D01*
X49003Y44783D01*
X49146Y45866D01*
X49003Y46949D01*
X48585Y47959D01*
X47920Y48826D01*
X47053Y49491D01*
X46044Y49909D01*
X44961Y50052D01*
D02*
G37*
G36*
X132390Y39238D02*
Y35618D01*
X136009D01*
X135933Y36201D01*
X135514Y37211D01*
X134849Y38078D01*
X133983Y38743D01*
X132973Y39161D01*
X132390Y39238D01*
D02*
G37*
G36*
X131390D02*
X130807Y39161D01*
X129797Y38743D01*
X128930Y38078D01*
X128265Y37211D01*
X127847Y36201D01*
X127770Y35618D01*
X131390D01*
Y39238D01*
D02*
G37*
G36*
X136009Y34618D02*
X132390D01*
Y30999D01*
X132973Y31075D01*
X133983Y31493D01*
X134849Y32159D01*
X135514Y33026D01*
X135933Y34035D01*
X136009Y34618D01*
D02*
G37*
G36*
X131390D02*
X127770D01*
X127847Y34035D01*
X128265Y33026D01*
X128930Y32159D01*
X129797Y31493D01*
X130807Y31075D01*
X131390Y30999D01*
Y34618D01*
D02*
G37*
G36*
X143701Y39304D02*
X142618Y39161D01*
X141608Y38743D01*
X140741Y38078D01*
X140076Y37211D01*
X139658Y36201D01*
X139515Y35118D01*
X139658Y34035D01*
X140076Y33026D01*
X140741Y32159D01*
X141608Y31493D01*
X142618Y31075D01*
X143701Y30933D01*
X144784Y31075D01*
X145794Y31493D01*
X146660Y32159D01*
X147326Y33026D01*
X147744Y34035D01*
X147886Y35118D01*
X147744Y36201D01*
X147326Y37211D01*
X146660Y38078D01*
X145794Y38743D01*
X144784Y39161D01*
X143701Y39304D01*
D02*
G37*
G36*
X51833Y24598D02*
X50008D01*
Y22773D01*
X50436Y22858D01*
X51222Y23384D01*
X51748Y24171D01*
X51833Y24598D01*
D02*
G37*
G36*
X49008D02*
X47183D01*
X47268Y24171D01*
X47793Y23384D01*
X48580Y22858D01*
X49008Y22773D01*
Y24598D01*
D02*
G37*
G36*
X170366Y28559D02*
X168856Y28440D01*
X166895Y27970D01*
X165032Y27198D01*
X163313Y26144D01*
X161779Y24835D01*
X160470Y23301D01*
X159416Y21582D01*
X158644Y19719D01*
X158174Y17758D01*
X158055Y16248D01*
X170366D01*
Y28559D01*
D02*
G37*
G36*
X25697D02*
Y16248D01*
X38008D01*
X37889Y17758D01*
X37418Y19719D01*
X36647Y21582D01*
X35593Y23301D01*
X34284Y24835D01*
X32750Y26144D01*
X31031Y27198D01*
X29168Y27970D01*
X27207Y28440D01*
X25697Y28559D01*
D02*
G37*
G36*
X89870Y16892D02*
Y15067D01*
X91695D01*
X91610Y15495D01*
X91084Y16281D01*
X90298Y16807D01*
X89870Y16892D01*
D02*
G37*
G36*
X88870D02*
X88442Y16807D01*
X87656Y16281D01*
X87130Y15495D01*
X87045Y15067D01*
X88870D01*
Y16892D01*
D02*
G37*
G36*
X91695Y14067D02*
X89870D01*
Y12242D01*
X90298Y12327D01*
X91084Y12853D01*
X91610Y13639D01*
X91695Y14067D01*
D02*
G37*
G36*
X88870D02*
X87045D01*
X87130Y13639D01*
X87656Y12853D01*
X88442Y12327D01*
X88870Y12242D01*
Y14067D01*
D02*
G37*
G36*
X137795Y25049D02*
X136442Y24916D01*
X135140Y24521D01*
X133940Y23880D01*
X132889Y23017D01*
X132026Y21965D01*
X131385Y20766D01*
X130990Y19464D01*
X130856Y18110D01*
X130990Y16757D01*
X131385Y15455D01*
X132026Y14255D01*
X132889Y13204D01*
X133940Y12341D01*
X135140Y11700D01*
X136442Y11305D01*
X137795Y11171D01*
X139149Y11305D01*
X140451Y11700D01*
X141650Y12341D01*
X142702Y13204D01*
X143565Y14255D01*
X144206Y15455D01*
X144601Y16757D01*
X144734Y18110D01*
X144601Y19464D01*
X144206Y20766D01*
X143565Y21965D01*
X142702Y23017D01*
X141650Y23880D01*
X140451Y24521D01*
X139149Y24916D01*
X137795Y25049D01*
D02*
G37*
%LPD*%
D12*
X90158Y44882D02*
X96457Y51181D01*
X62205Y46457D02*
Y75197D01*
Y46457D02*
X63779Y44882D01*
X90158D01*
D13*
X64862Y41831D02*
X92815D01*
X92913Y41732D01*
X96457Y45276D01*
X49409Y30315D02*
X57579Y38484D01*
X68799D01*
X72342Y71358D02*
X81693Y62008D01*
Y54823D02*
Y62008D01*
X72342Y71358D02*
Y76279D01*
X110236Y43701D02*
X114567Y48031D01*
X110236Y12992D02*
Y43701D01*
X114567Y48031D02*
Y68504D01*
X108268Y74803D02*
X114567Y68504D01*
X108268Y74803D02*
Y86221D01*
X146457Y59449D02*
X149213Y62205D01*
X124016Y59449D02*
X146457D01*
X149213Y62205D02*
X159843D01*
X108253Y86207D02*
X108268Y86221D01*
D16*
X9449Y112598D02*
D03*
X186614Y15748D02*
D03*
D17*
X170866Y-0D02*
G03*
X186614Y15748I0J15748D01*
G01*
X9449Y15748D02*
G03*
X25197Y0I15748J0D01*
G01*
X186614Y112598D02*
G03*
X170866Y128347I-15748J0D01*
G01*
X25197D02*
G03*
X9449Y112598I0J-15748D01*
G01*
X25197Y128347D02*
X170866D01*
X9449Y15748D02*
Y112598D01*
X25197Y0D02*
X170866D01*
X186614Y15748D02*
Y112598D01*
X71063Y55315D02*
G03*
X71063Y55315I-1969J0D01*
G01*
X106102Y46457D02*
G03*
X106102Y46457I-1575J0D01*
G01*
X89370Y58760D02*
Y65650D01*
X85630Y58760D02*
Y65650D01*
X89370D01*
X85630Y58760D02*
X89370D01*
X53543Y24705D02*
X57284D01*
X53543Y31594D02*
X57284D01*
X53543Y24705D02*
Y31594D01*
X57284Y24705D02*
Y31594D01*
X80807Y31398D02*
X84547D01*
X80807Y24508D02*
X84547D01*
Y31398D01*
X80807Y24508D02*
Y31398D01*
X52461Y56595D02*
X56201D01*
X52461Y49705D02*
X56201D01*
Y56595D01*
X52461Y49705D02*
Y56595D01*
X107480Y16043D02*
X112992D01*
X107480Y24508D02*
X112992D01*
Y16043D02*
Y24508D01*
X107480Y16043D02*
Y24508D01*
X160236Y47933D02*
X168898D01*
X160236Y42618D02*
X168898D01*
X160236D02*
Y47933D01*
X168898Y42618D02*
Y47933D01*
X113091Y77559D02*
Y83071D01*
X121555Y77559D02*
Y83071D01*
X113091Y77559D02*
X121555D01*
X113091Y83071D02*
X121555D01*
X54035Y88779D02*
X59350D01*
X54035Y80512D02*
X59350D01*
Y88779D01*
X54035Y80512D02*
Y88779D01*
X173917Y66929D02*
Y72441D01*
X165453Y66929D02*
Y72441D01*
X173917D01*
X165453Y66929D02*
X173917D01*
X75689Y80315D02*
X81004D01*
X75689Y88976D02*
X81004D01*
X75689Y80315D02*
Y88976D01*
X81004Y80315D02*
Y88976D01*
X63878D02*
X69193D01*
X63878Y80315D02*
X69193D01*
Y88976D01*
X63878Y80315D02*
Y88976D01*
X65551Y51772D02*
X77756D01*
X65551Y63976D02*
X77756D01*
X65551Y51772D02*
Y63976D01*
X77756Y51772D02*
Y63976D01*
X95374Y103839D02*
X100689D01*
X95374Y95177D02*
X100689D01*
Y103839D01*
X95374Y95177D02*
Y103839D01*
X83957Y103937D02*
X89272D01*
X83957Y95276D02*
X89272D01*
Y103937D01*
X83957Y95276D02*
Y103937D01*
X134685Y109449D02*
Y114961D01*
X143268Y109449D02*
Y114961D01*
X134685D02*
X143268D01*
X134685Y109449D02*
X143268D01*
X160236Y52461D02*
X168898D01*
X160236Y57775D02*
X168898D01*
Y52461D02*
Y57775D01*
X160236Y52461D02*
Y57775D01*
X134646Y81988D02*
X143307D01*
X134646Y87303D02*
X143307D01*
Y81988D02*
Y87303D01*
X134646Y81988D02*
Y87303D01*
X134843Y95768D02*
Y101083D01*
X143110Y95768D02*
Y101083D01*
X134843D02*
X143110D01*
X134843Y95768D02*
X143110D01*
X93799Y24409D02*
Y33071D01*
X99114Y24409D02*
Y33071D01*
X93799Y24409D02*
X99114D01*
X93799Y33071D02*
X99114D01*
X66240Y24409D02*
Y33071D01*
X71555Y24409D02*
Y33071D01*
X66240Y24409D02*
X71555D01*
X66240Y33071D02*
X71555D01*
X132677Y53071D02*
X138189D01*
X132677Y65039D02*
X138189D01*
Y53071D02*
Y65039D01*
X132677Y53071D02*
Y65039D01*
X101378Y43307D02*
X109646D01*
X101378Y52756D02*
X109646D01*
X101378Y43307D02*
Y52756D01*
X109646Y43307D02*
Y52756D01*
X85630Y62205D02*
X89370D01*
X87500Y60335D02*
Y64075D01*
X55413Y26280D02*
Y30020D01*
X53543Y28150D02*
X57284D01*
X82677Y26083D02*
Y29823D01*
X80807Y27953D02*
X84547D01*
X54331Y51279D02*
Y55020D01*
X52461Y53150D02*
X56201D01*
X110236Y18307D02*
Y22244D01*
X108268Y20276D02*
X112205D01*
X164567Y43307D02*
Y47244D01*
X162598Y45276D02*
X166535D01*
X115354Y80315D02*
X119291D01*
X117323Y78347D02*
Y82284D01*
X56693Y82677D02*
Y86614D01*
X54724Y84646D02*
X58661D01*
X167717Y69685D02*
X171653D01*
X169685Y67716D02*
Y71653D01*
X78347Y82677D02*
Y86614D01*
X76378Y84646D02*
X80315D01*
X66535Y82677D02*
Y86614D01*
X64567Y84646D02*
X68504D01*
X71654Y55905D02*
Y59842D01*
X69685Y57874D02*
X73622D01*
X98032Y97539D02*
Y101476D01*
X96063Y99508D02*
X100000D01*
X86614Y97638D02*
Y101575D01*
X84646Y99606D02*
X88583D01*
X137008Y112205D02*
X140945D01*
X138977Y110236D02*
Y114173D01*
X164567Y53149D02*
Y57086D01*
X162598Y55118D02*
X166535D01*
X138976Y82677D02*
Y86614D01*
X137008Y84646D02*
X140945D01*
X137008Y98425D02*
X140945D01*
X138977Y96457D02*
Y100394D01*
X94488Y28740D02*
X98425D01*
X96457Y26772D02*
Y30709D01*
X66929Y28740D02*
X70866D01*
X68898Y26772D02*
Y30709D01*
X135433Y57087D02*
Y61024D01*
X133465Y59055D02*
X137402D01*
X105512Y46063D02*
Y50000D01*
X103543Y48031D02*
X107480D01*
D18*
X90453Y56299D02*
Y68110D01*
X84547Y56299D02*
Y68110D01*
X90453D01*
X84547Y56299D02*
X90453D01*
X52461Y22244D02*
X58366D01*
X52461Y34055D02*
X58366D01*
X52461Y22244D02*
Y34055D01*
X58366Y22244D02*
Y34055D01*
X79724Y33858D02*
X85630D01*
X79724Y22047D02*
X85630D01*
Y33858D01*
X79724Y22047D02*
Y33858D01*
X51378Y59055D02*
X57284D01*
X51378Y47244D02*
X57284D01*
Y59055D01*
X51378Y47244D02*
Y59055D01*
X103150Y14961D02*
X117323D01*
X103150Y25591D02*
X117323D01*
Y14961D02*
Y25591D01*
X103150Y14961D02*
Y25591D01*
X157874Y49016D02*
X171260D01*
X157874Y41535D02*
X171260D01*
X157874D02*
Y49016D01*
X171260Y41535D02*
Y49016D01*
X112008Y73228D02*
Y87402D01*
X122638Y73228D02*
Y87402D01*
X112008Y73228D02*
X122638D01*
X112008Y87402D02*
X122638D01*
X52953Y91339D02*
X60433D01*
X52953Y77953D02*
X60433D01*
Y91339D01*
X52953Y77953D02*
Y91339D01*
X175000Y62598D02*
Y76772D01*
X164370Y62598D02*
Y76772D01*
X175000D01*
X164370Y62598D02*
X175000D01*
X74606Y77953D02*
X82087D01*
X74606Y91339D02*
X82087D01*
X74606Y77953D02*
Y91339D01*
X82087Y77953D02*
Y91339D01*
X62795Y91339D02*
X70276D01*
X62795Y77953D02*
X70276D01*
Y91339D01*
X62795Y77953D02*
Y91339D01*
X64567Y45472D02*
X78740D01*
X64567Y70275D02*
X78740D01*
X64567Y45472D02*
Y70275D01*
X78740Y45472D02*
Y70275D01*
X94291Y106201D02*
X101772D01*
X94291Y92815D02*
X101772D01*
Y106201D01*
X94291Y92815D02*
Y106201D01*
X82874Y106299D02*
X90354D01*
X82874Y92913D02*
X90354D01*
Y106299D01*
X82874Y92913D02*
Y106299D01*
X132283Y108465D02*
Y115945D01*
X145669Y108465D02*
Y115945D01*
X132283D02*
X145669D01*
X132283Y108465D02*
X145669D01*
X157874Y51378D02*
X171260D01*
X157874Y58858D02*
X171260D01*
Y51378D02*
Y58858D01*
X157874Y51378D02*
Y58858D01*
X132283Y80906D02*
X145669D01*
X132283Y88386D02*
X145669D01*
Y80906D02*
Y88386D01*
X132283Y80906D02*
Y88386D01*
X132283Y94685D02*
Y102165D01*
X145669Y94685D02*
Y102165D01*
X132283D02*
X145669D01*
X132283Y94685D02*
X145669D01*
X92716Y22047D02*
Y35433D01*
X100197Y22047D02*
Y35433D01*
X92716Y22047D02*
X100197D01*
X92716Y35433D02*
X100197D01*
X65158Y22047D02*
Y35433D01*
X72638Y22047D02*
Y35433D01*
X65158Y22047D02*
X72638D01*
X65158Y35433D02*
X72638D01*
X127854Y52165D02*
X143012D01*
X127854Y65945D02*
X143012D01*
Y52165D02*
Y65945D01*
X127854Y52165D02*
Y65945D01*
X100394Y39272D02*
X110630D01*
X100394Y56791D02*
X110630D01*
X100394Y39272D02*
Y56791D01*
X110630Y39272D02*
Y56791D01*
D56*
X131890Y35118D02*
D03*
X143701D02*
D03*
X44961Y81299D02*
D03*
Y69488D02*
D03*
Y57677D02*
D03*
Y45866D02*
D03*
D57*
X137795Y18110D02*
D03*
X27953Y54331D02*
D03*
Y72835D02*
D03*
D58*
X72441Y84646D02*
D03*
X64862Y41831D02*
D03*
X68799Y38484D02*
D03*
X81693Y54823D02*
D03*
X72342Y76279D02*
D03*
X49409Y30315D02*
D03*
X62205Y75197D02*
D03*
X81496Y49606D02*
D03*
X110236Y12992D02*
D03*
X114567Y48031D02*
D03*
X96457Y51181D02*
D03*
Y45276D02*
D03*
X119291Y55118D02*
D03*
X124016Y59449D02*
D03*
X159843Y62205D02*
D03*
X108268Y86221D02*
D03*
X153937Y55118D02*
D03*
X89370Y14567D02*
D03*
X49508Y25098D02*
D03*
D59*
X25197Y112598D02*
D03*
X170866D02*
D03*
Y15748D02*
D03*
X25197D02*
D03*
M02*
