G04*
G04 #@! TF.GenerationSoftware,Altium Limited,Altium Designer,19.1.8 (144)*
G04*
G04 Layer_Color=65535*
%FSLAX25Y25*%
%MOIN*%
G70*
G01*
G75*
%ADD10C,0.00984*%
%ADD11C,0.02362*%
%ADD12C,0.00787*%
%ADD13C,0.01000*%
%ADD14C,0.00600*%
%ADD15C,0.00591*%
%ADD16C,0.00394*%
%ADD17C,0.00394*%
%ADD18C,0.00197*%
G36*
X46176Y125061D02*
X46290D01*
X46422Y125045D01*
X46586Y125029D01*
X46750Y124996D01*
X47143Y124946D01*
X47570Y124848D01*
X48029Y124733D01*
X48488Y124569D01*
X48373Y124241D01*
X48357D01*
X48324Y124258D01*
X48259Y124291D01*
X48160Y124307D01*
X48062Y124356D01*
X47930Y124389D01*
X47783Y124438D01*
X47619Y124471D01*
X47258Y124569D01*
X46832Y124651D01*
X46389Y124700D01*
X45930Y124733D01*
X45470D01*
X45323Y124717D01*
X45159Y124700D01*
X44798Y124668D01*
X44388Y124618D01*
X43962Y124537D01*
X43519Y124422D01*
X43503D01*
X43470Y124405D01*
X43404Y124389D01*
X43322Y124356D01*
X43224Y124323D01*
X43093Y124274D01*
X42814Y124159D01*
X42469Y124012D01*
X42109Y123831D01*
X41731Y123618D01*
X41338Y123372D01*
X41321D01*
X41289Y123339D01*
X41239Y123307D01*
X41157Y123241D01*
X41075Y123175D01*
X40977Y123093D01*
X40731Y122880D01*
X40452Y122634D01*
X40157Y122322D01*
X39862Y121978D01*
X39566Y121601D01*
Y121584D01*
X39534Y121552D01*
X39501Y121502D01*
X39452Y121421D01*
X39386Y121322D01*
X39320Y121207D01*
X39239Y121076D01*
X39156Y120929D01*
X38976Y120600D01*
X38796Y120223D01*
X38615Y119813D01*
X38468Y119370D01*
Y119354D01*
X38451Y119321D01*
X38435Y119256D01*
X38418Y119157D01*
X38386Y119059D01*
X38353Y118928D01*
X38337Y118780D01*
X38304Y118616D01*
X38238Y118255D01*
X38189Y117845D01*
X38156Y117419D01*
Y116960D01*
Y116943D01*
Y116911D01*
Y116845D01*
X38173Y116763D01*
X38189Y116648D01*
Y116517D01*
X38205Y116369D01*
X38238Y116222D01*
X38287Y115861D01*
X38386Y115451D01*
X38484Y115024D01*
X38632Y114582D01*
Y114565D01*
X38648Y114532D01*
X38681Y114467D01*
X38714Y114385D01*
X38763Y114286D01*
X38812Y114155D01*
X38960Y113876D01*
X39124Y113549D01*
X39337Y113188D01*
X39599Y112811D01*
X39878Y112433D01*
X39599Y112187D01*
X39583Y112204D01*
X39566Y112236D01*
X39517Y112286D01*
X39468Y112368D01*
X39386Y112466D01*
X39304Y112581D01*
X39222Y112712D01*
X39124Y112860D01*
X38910Y113204D01*
X38697Y113598D01*
X38484Y114024D01*
X38304Y114467D01*
Y114483D01*
X38287Y114516D01*
X38254Y114582D01*
X38238Y114680D01*
X38189Y114778D01*
X38156Y114910D01*
X38107Y115057D01*
X38074Y115221D01*
X37976Y115598D01*
X37894Y116025D01*
X37828Y116468D01*
X37795Y116943D01*
Y116960D01*
Y117009D01*
Y117075D01*
Y117173D01*
Y117288D01*
X37812Y117419D01*
Y117583D01*
X37828Y117747D01*
X37861Y118140D01*
X37927Y118567D01*
X38025Y119026D01*
X38140Y119485D01*
Y119502D01*
X38156Y119535D01*
X38173Y119600D01*
X38205Y119699D01*
X38254Y119797D01*
X38287Y119928D01*
X38353Y120076D01*
X38418Y120240D01*
X38583Y120600D01*
X38763Y120994D01*
X39009Y121404D01*
X39271Y121814D01*
X39288Y121830D01*
X39304Y121863D01*
X39353Y121913D01*
X39419Y121994D01*
X39485Y122093D01*
X39583Y122191D01*
X39812Y122454D01*
X40075Y122749D01*
X40387Y123061D01*
X40747Y123372D01*
X41124Y123667D01*
X41141Y123684D01*
X41174Y123700D01*
X41239Y123733D01*
X41305Y123782D01*
X41403Y123848D01*
X41535Y123913D01*
X41666Y123995D01*
X41813Y124077D01*
X42158Y124258D01*
X42535Y124438D01*
X42961Y124618D01*
X43404Y124766D01*
X43420D01*
X43453Y124783D01*
X43519Y124799D01*
X43617Y124815D01*
X43732Y124848D01*
X43863Y124881D01*
X44011Y124914D01*
X44191Y124946D01*
X44568Y124996D01*
X44995Y125045D01*
X45454Y125078D01*
X46077D01*
X46176Y125061D01*
D02*
G37*
G36*
X82272Y116008D02*
X81534D01*
Y117714D01*
X79550D01*
Y116008D01*
X78795D01*
Y120010D01*
X79550D01*
Y118354D01*
X81534D01*
Y120010D01*
X82272D01*
Y116008D01*
D02*
G37*
G36*
X77303Y119994D02*
X77434Y119977D01*
X77582Y119945D01*
X77729Y119879D01*
X77877Y119813D01*
X78008Y119715D01*
X78025Y119699D01*
X78057Y119666D01*
X78106Y119600D01*
X78172Y119502D01*
X78221Y119387D01*
X78271Y119239D01*
X78303Y119075D01*
X78320Y118878D01*
Y118846D01*
Y118780D01*
X78303Y118665D01*
X78271Y118534D01*
X78221Y118370D01*
X78139Y118206D01*
X78041Y118042D01*
X77893Y117894D01*
X77877Y117878D01*
X77811Y117829D01*
X77713Y117763D01*
X77582Y117698D01*
X77401Y117599D01*
X77172Y117517D01*
X76909Y117452D01*
X76614Y117386D01*
X76516Y118059D01*
X76532D01*
X76598Y118075D01*
X76696Y118091D01*
X76794Y118124D01*
X77057Y118206D01*
X77172Y118272D01*
X77270Y118337D01*
X77286Y118354D01*
X77319Y118370D01*
X77352Y118419D01*
X77401Y118485D01*
X77500Y118649D01*
X77516Y118747D01*
X77533Y118862D01*
Y118878D01*
Y118895D01*
X77516Y118993D01*
X77483Y119124D01*
X77401Y119223D01*
X77385Y119239D01*
X77303Y119289D01*
X77188Y119338D01*
X77040Y119354D01*
X76024D01*
Y116008D01*
X75286D01*
Y120010D01*
X77188D01*
X77303Y119994D01*
D02*
G37*
G36*
X91095Y116008D02*
X90341D01*
X88225Y118977D01*
Y116008D01*
X87504D01*
Y120010D01*
X88242D01*
X90374Y117091D01*
Y120010D01*
X91095D01*
Y116008D01*
D02*
G37*
G36*
X103756D02*
X103084D01*
Y118780D01*
X101969Y116008D01*
X101345D01*
X100230Y118780D01*
Y116008D01*
X99558D01*
Y120010D01*
X100312D01*
X101690Y116976D01*
X103018Y120010D01*
X103756D01*
Y116008D01*
D02*
G37*
G36*
X73170D02*
X72481D01*
Y118780D01*
X71399Y116008D01*
X70759D01*
X69644Y118780D01*
Y116008D01*
X68955D01*
Y120010D01*
X69743D01*
X71087Y116976D01*
X72432Y120010D01*
X73170D01*
Y116008D01*
D02*
G37*
G36*
X94556Y119370D02*
X93408D01*
Y116008D01*
X92670D01*
Y119370D01*
X91505D01*
Y120010D01*
X94556D01*
Y119370D01*
D02*
G37*
G36*
X87012Y116008D02*
X86225D01*
X85749Y117091D01*
X84421D01*
X84683Y117730D01*
X85487D01*
X84847Y119256D01*
X83518Y116008D01*
X82764D01*
X84470Y120010D01*
X85273D01*
X87012Y116008D01*
D02*
G37*
G36*
X68480D02*
X67660D01*
X67217Y117091D01*
X65872D01*
X66118Y117730D01*
X66938D01*
X66315Y119256D01*
X64970Y116008D01*
X64216D01*
X65921Y120010D01*
X66725D01*
X68480Y116008D01*
D02*
G37*
G36*
X63838Y119370D02*
X61838D01*
Y118354D01*
X63757D01*
Y117698D01*
X61805D01*
Y116648D01*
X63871D01*
Y116008D01*
X61083D01*
Y120010D01*
X63838D01*
Y119370D01*
D02*
G37*
G36*
X60673D02*
X59509D01*
Y116008D01*
X58771D01*
Y119370D01*
X57607D01*
Y120010D01*
X60673D01*
Y119370D01*
D02*
G37*
G36*
X97196Y120010D02*
X97409Y119977D01*
X97655Y119912D01*
X97901Y119830D01*
X98147Y119699D01*
X98344Y119518D01*
X98361Y119502D01*
X98426Y119420D01*
X98508Y119305D01*
X98606Y119141D01*
X98689Y118928D01*
X98770Y118665D01*
X98836Y118354D01*
X98852Y117993D01*
Y117976D01*
Y117944D01*
Y117894D01*
Y117829D01*
X98820Y117648D01*
X98787Y117435D01*
X98721Y117189D01*
X98639Y116927D01*
X98508Y116681D01*
X98344Y116468D01*
X98328Y116451D01*
X98246Y116386D01*
X98131Y116304D01*
X97967Y116222D01*
X97770Y116123D01*
X97508Y116041D01*
X97196Y115976D01*
X96852Y115959D01*
X96753D01*
X96688Y115976D01*
X96524Y115992D01*
X96311Y116025D01*
X96065Y116091D01*
X95819Y116173D01*
X95589Y116304D01*
X95376Y116468D01*
X95359Y116500D01*
X95294Y116566D01*
X95212Y116681D01*
X95130Y116861D01*
X95031Y117075D01*
X94933Y117337D01*
X94867Y117648D01*
X94835Y117993D01*
Y118009D01*
Y118042D01*
Y118091D01*
X94851Y118157D01*
X94867Y118337D01*
X94900Y118567D01*
X94966Y118813D01*
X95048Y119059D01*
X95179Y119305D01*
X95343Y119518D01*
X95359Y119535D01*
X95441Y119600D01*
X95556Y119682D01*
X95720Y119781D01*
X95933Y119879D01*
X96196Y119961D01*
X96507Y120027D01*
X96852Y120043D01*
X97016D01*
X97196Y120010D01*
D02*
G37*
G36*
X104625Y113942D02*
X56704D01*
Y114286D01*
X104625D01*
Y113942D01*
D02*
G37*
G36*
X82780Y112679D02*
X82912Y112646D01*
X82928D01*
X82945Y112630D01*
X83026Y112614D01*
X83125Y112565D01*
X83240Y112483D01*
X83059Y112187D01*
X83043Y112204D01*
X82977Y112236D01*
X82879Y112286D01*
X82780Y112319D01*
X82764Y112335D01*
X82699Y112351D01*
X82600Y112368D01*
X82502Y112384D01*
X82452D01*
X82338Y112351D01*
X82321D01*
X82305Y112335D01*
X82223Y112302D01*
X82190Y112269D01*
X82174Y112236D01*
X82141Y112187D01*
Y112171D01*
Y112154D01*
X82125Y112056D01*
Y112023D01*
X82141Y111958D01*
X82157Y111941D01*
X82190Y111859D01*
X82206Y111843D01*
X82272Y111794D01*
X82288D01*
X82321Y111777D01*
X82371D01*
X82436Y111761D01*
X82452D01*
X82469Y111744D01*
X82534Y111728D01*
X82715D01*
X82780Y111712D01*
X82863Y111695D01*
X82961Y111646D01*
X82977Y111630D01*
X83043Y111613D01*
X83092Y111564D01*
X83158Y111498D01*
X83174Y111482D01*
X83207Y111433D01*
X83240Y111367D01*
X83272Y111285D01*
Y111269D01*
X83289Y111220D01*
X83305Y111154D01*
Y111072D01*
Y111056D01*
Y111023D01*
X83289Y110957D01*
Y110892D01*
X83223Y110728D01*
X83174Y110646D01*
X83109Y110580D01*
X83092D01*
X83076Y110547D01*
X83026Y110531D01*
X82961Y110498D01*
X82879Y110465D01*
X82780Y110449D01*
X82649Y110416D01*
X82420D01*
X82354Y110433D01*
X82206Y110449D01*
X82042Y110482D01*
X82026D01*
X82010Y110498D01*
X81911Y110547D01*
X81780Y110613D01*
X81649Y110728D01*
X81879Y110990D01*
X81895Y110974D01*
X81960Y110924D01*
X82059Y110859D01*
X82157Y110810D01*
X82190D01*
X82272Y110793D01*
X82387Y110777D01*
X82518Y110760D01*
X82551D01*
X82649Y110777D01*
X82748Y110793D01*
X82846Y110826D01*
X82863Y110843D01*
X82912Y110892D01*
X82945Y110957D01*
X82961Y111072D01*
Y111089D01*
Y111138D01*
X82928Y111203D01*
X82895Y111269D01*
X82879Y111285D01*
X82846Y111318D01*
X82764Y111351D01*
X82666Y111384D01*
X82502D01*
X82469Y111400D01*
X82371Y111416D01*
X82354D01*
X82288Y111433D01*
X82190Y111449D01*
X82108Y111482D01*
X82092Y111498D01*
X82042Y111531D01*
X81977Y111581D01*
X81928Y111646D01*
X81911Y111662D01*
X81879Y111695D01*
X81846Y111761D01*
X81813Y111827D01*
Y111843D01*
X81796Y111892D01*
X81780Y111974D01*
Y112056D01*
Y112089D01*
Y112154D01*
X81796Y112236D01*
X81813Y112335D01*
X81829Y112351D01*
X81846Y112400D01*
X81895Y112466D01*
X81960Y112548D01*
X81977Y112565D01*
X82026Y112597D01*
X82108Y112630D01*
X82190Y112663D01*
X82206Y112679D01*
X82288Y112696D01*
X82387Y112712D01*
X82649D01*
X82780Y112679D01*
D02*
G37*
G36*
X59968D02*
X60116Y112646D01*
X60132D01*
X60149Y112630D01*
X60230Y112614D01*
X60329Y112565D01*
X60444Y112483D01*
X60263Y112187D01*
X60247Y112204D01*
X60181Y112236D01*
X60083Y112286D01*
X59984Y112319D01*
X59952Y112335D01*
X59886Y112351D01*
X59804Y112368D01*
X59689Y112384D01*
X59640D01*
X59542Y112351D01*
X59525D01*
X59509Y112335D01*
X59427Y112302D01*
X59394Y112269D01*
X59378Y112236D01*
X59345Y112187D01*
Y112171D01*
X59329Y112154D01*
X59312Y112056D01*
Y112023D01*
X59329Y111958D01*
X59345Y111941D01*
X59394Y111859D01*
X59411Y111843D01*
X59476Y111794D01*
X59492D01*
X59525Y111777D01*
X59575D01*
X59640Y111761D01*
X59657D01*
X59673Y111744D01*
X59738Y111728D01*
X59919D01*
X59984Y111712D01*
X60066Y111695D01*
X60165Y111646D01*
X60181Y111630D01*
X60247Y111613D01*
X60296Y111564D01*
X60362Y111498D01*
X60378Y111482D01*
X60411Y111433D01*
X60444Y111367D01*
X60476Y111285D01*
Y111269D01*
X60493Y111220D01*
X60509Y111154D01*
Y111072D01*
Y111056D01*
Y111023D01*
X60493Y110957D01*
X60476Y110892D01*
X60411Y110728D01*
X60362Y110646D01*
X60296Y110580D01*
X60280D01*
X60263Y110547D01*
X60214Y110531D01*
X60149Y110498D01*
X60066Y110465D01*
X59968Y110449D01*
X59853Y110416D01*
X59624D01*
X59558Y110433D01*
X59411Y110449D01*
X59246Y110482D01*
X59230D01*
X59214Y110498D01*
X59115Y110547D01*
X58984Y110613D01*
X58837Y110728D01*
X59083Y110990D01*
X59099Y110974D01*
X59165Y110924D01*
X59246Y110859D01*
X59361Y110810D01*
X59394D01*
X59476Y110793D01*
X59591Y110777D01*
X59722Y110760D01*
X59755D01*
X59853Y110777D01*
X59952Y110793D01*
X60050Y110826D01*
X60066Y110843D01*
X60116Y110892D01*
X60149Y110957D01*
X60165Y111072D01*
Y111089D01*
X60149Y111138D01*
X60132Y111203D01*
X60083Y111269D01*
X60066Y111285D01*
X60034Y111318D01*
X59968Y111351D01*
X59870Y111384D01*
X59706D01*
X59673Y111400D01*
X59624D01*
X59558Y111416D01*
X59542D01*
X59476Y111433D01*
X59394Y111449D01*
X59312Y111482D01*
X59296Y111498D01*
X59246Y111531D01*
X59181Y111581D01*
X59115Y111646D01*
X59099Y111662D01*
X59083Y111695D01*
X59033Y111761D01*
X59000Y111827D01*
Y111843D01*
X58984Y111892D01*
X58968Y111974D01*
X58951Y112056D01*
Y112089D01*
Y112154D01*
X58968Y112236D01*
X59000Y112335D01*
X59017Y112351D01*
X59050Y112400D01*
X59099Y112466D01*
X59165Y112548D01*
X59181Y112565D01*
X59230Y112597D01*
X59296Y112630D01*
X59378Y112663D01*
X59411Y112679D01*
X59476Y112696D01*
X59575Y112712D01*
X59837D01*
X59968Y112679D01*
D02*
G37*
G36*
X102346Y112696D02*
X102444Y112663D01*
X102461D01*
X102526Y112630D01*
X102608Y112597D01*
X102690Y112532D01*
X102707Y112515D01*
X102756Y112466D01*
X102805Y112400D01*
X102854Y112302D01*
X102871Y112286D01*
X102887Y112220D01*
X102936Y112138D01*
X102969Y112040D01*
X102575D01*
Y112056D01*
X102559Y112089D01*
X102526Y112171D01*
Y112187D01*
X102510Y112204D01*
X102444Y112286D01*
X102428Y112302D01*
X102395Y112319D01*
X102296Y112351D01*
X102280D01*
X102247Y112368D01*
X102149Y112384D01*
X102116Y112368D01*
X102050Y112351D01*
X102018D01*
X101936Y112335D01*
X101919Y112319D01*
X101870Y112269D01*
X101854Y112253D01*
X101804Y112220D01*
X101788Y112187D01*
X101739Y112122D01*
Y112089D01*
X101723Y112023D01*
Y112007D01*
X101706Y111990D01*
Y111925D01*
X101690Y111843D01*
Y111827D01*
Y111761D01*
Y111679D01*
Y111581D01*
Y111548D01*
Y111482D01*
Y111384D01*
Y111285D01*
Y111269D01*
X101706Y111220D01*
Y111154D01*
X101723Y111105D01*
Y111072D01*
X101739Y111006D01*
X101755Y110974D01*
X101804Y110908D01*
X101821Y110892D01*
X101870Y110843D01*
X101886Y110826D01*
X101936Y110810D01*
X101952D01*
X101969Y110793D01*
X102050Y110760D01*
X102182D01*
X102231Y110777D01*
X102313Y110793D01*
X102395Y110826D01*
X102411Y110843D01*
X102461Y110892D01*
X102526Y110957D01*
X102575Y111072D01*
X102969D01*
X102953Y111039D01*
X102936Y110974D01*
X102887Y110875D01*
X102838Y110777D01*
X102821Y110760D01*
X102788Y110711D01*
X102739Y110646D01*
X102674Y110564D01*
X102657Y110547D01*
X102608Y110531D01*
X102526Y110482D01*
X102428Y110449D01*
X102411D01*
X102346Y110433D01*
X102247Y110416D01*
X102083D01*
X102001Y110433D01*
X101919Y110449D01*
X101903D01*
X101854Y110465D01*
X101788Y110498D01*
X101706Y110531D01*
X101690Y110547D01*
X101657Y110580D01*
X101542Y110662D01*
Y110679D01*
X101509Y110711D01*
X101444Y110810D01*
X101427Y110826D01*
X101411Y110859D01*
Y110875D01*
Y110908D01*
X101394Y110924D01*
X101378Y110957D01*
Y110974D01*
Y110990D01*
Y111039D01*
Y111056D01*
X101362Y111089D01*
X101345Y111154D01*
X101329Y111236D01*
Y111252D01*
Y111335D01*
Y111433D01*
Y111581D01*
Y111597D01*
Y111613D01*
Y111695D01*
Y111794D01*
Y111892D01*
Y111908D01*
X101345Y111974D01*
X101362Y112023D01*
X101378Y112089D01*
Y112105D01*
Y112122D01*
X101394Y112204D01*
Y112220D01*
X101411Y112236D01*
X101444Y112319D01*
X101460Y112335D01*
X101477Y112368D01*
X101542Y112466D01*
X101558Y112483D01*
X101591Y112515D01*
X101640Y112565D01*
X101706Y112597D01*
X101723Y112614D01*
X101772Y112630D01*
X101837Y112663D01*
X101919Y112679D01*
X101936D01*
X101985Y112696D01*
X102067Y112712D01*
X102247D01*
X102346Y112696D01*
D02*
G37*
G36*
X95556D02*
X95654Y112663D01*
X95687D01*
X95736Y112630D01*
X95819Y112597D01*
X95900Y112532D01*
X95917Y112515D01*
X95966Y112466D01*
X96015Y112400D01*
X96065Y112302D01*
X96081Y112286D01*
X96097Y112220D01*
X96130Y112138D01*
X96163Y112040D01*
X95802D01*
Y112056D01*
X95786Y112089D01*
X95736Y112171D01*
Y112187D01*
X95720Y112204D01*
X95638Y112286D01*
Y112302D01*
X95605Y112319D01*
X95523Y112351D01*
X95507D01*
X95474Y112368D01*
X95376Y112384D01*
X95359D01*
X95327Y112368D01*
X95244Y112351D01*
X95212D01*
X95162Y112335D01*
X95130Y112319D01*
X95081Y112269D01*
X95064Y112253D01*
X94999Y112220D01*
X94982Y112187D01*
X94949Y112122D01*
X94933Y112089D01*
X94916Y112023D01*
Y112007D01*
Y111990D01*
X94900Y111925D01*
Y111843D01*
Y111827D01*
Y111761D01*
Y111679D01*
Y111581D01*
Y111548D01*
Y111482D01*
Y111384D01*
Y111285D01*
Y111269D01*
Y111220D01*
Y111154D01*
X94916Y111105D01*
X94933Y111072D01*
X94949Y111006D01*
X94966Y110974D01*
X94999Y110908D01*
X95015D01*
X95031Y110892D01*
X95081Y110843D01*
X95097Y110826D01*
X95162Y110810D01*
X95179Y110793D01*
X95244Y110760D01*
X95392D01*
X95458Y110777D01*
X95540Y110793D01*
X95622Y110826D01*
X95638Y110843D01*
X95687Y110892D01*
X95753Y110957D01*
X95802Y111072D01*
X96163D01*
Y111039D01*
X96147Y110974D01*
X96114Y110875D01*
X96065Y110777D01*
X96048Y110760D01*
X96015Y110711D01*
X95950Y110646D01*
X95868Y110564D01*
X95851Y110547D01*
X95802Y110531D01*
X95736Y110482D01*
X95638Y110449D01*
X95622D01*
X95556Y110433D01*
X95474Y110416D01*
X95294D01*
X95195Y110433D01*
X95113Y110449D01*
X95097D01*
X95048Y110465D01*
X94916Y110531D01*
X94900Y110547D01*
X94867Y110580D01*
X94753Y110662D01*
X94736Y110679D01*
X94720Y110711D01*
X94638Y110810D01*
Y110826D01*
X94621Y110859D01*
Y110875D01*
X94605Y110908D01*
X94589Y110924D01*
X94572Y110957D01*
Y110974D01*
Y110990D01*
Y111039D01*
Y111056D01*
Y111089D01*
X94556Y111154D01*
Y111236D01*
Y111252D01*
Y111335D01*
Y111433D01*
Y111581D01*
Y111597D01*
Y111613D01*
Y111695D01*
Y111794D01*
Y111892D01*
Y111908D01*
Y111974D01*
Y112023D01*
X94572Y112089D01*
Y112105D01*
X94589Y112122D01*
X94605Y112204D01*
Y112220D01*
X94621Y112236D01*
X94638Y112319D01*
X94654Y112335D01*
X94670Y112368D01*
X94753Y112466D01*
X94769Y112483D01*
X94802Y112515D01*
X94916Y112597D01*
X94933Y112614D01*
X94966Y112630D01*
X95031Y112663D01*
X95113Y112679D01*
X95130D01*
X95195Y112696D01*
X95277Y112712D01*
X95474D01*
X95556Y112696D01*
D02*
G37*
G36*
X74056Y110433D02*
X73711D01*
Y111843D01*
X73695D01*
X73236Y110760D01*
X72940D01*
X72465Y111843D01*
X72448D01*
Y110433D01*
X72104D01*
Y112696D01*
X72432D01*
X73088Y111220D01*
X73728Y112696D01*
X74056D01*
Y110433D01*
D02*
G37*
G36*
X76270Y111187D02*
Y111154D01*
Y111089D01*
X76237Y110990D01*
X76204Y110875D01*
X76188Y110859D01*
X76171Y110793D01*
X76106Y110711D01*
X76024Y110629D01*
X76007Y110613D01*
X75958Y110564D01*
X75876Y110514D01*
X75778Y110465D01*
X75745D01*
X75679Y110449D01*
X75581Y110433D01*
X75466Y110416D01*
X75351D01*
X75253Y110433D01*
X75138Y110465D01*
X75122Y110482D01*
X75056Y110498D01*
X74974Y110564D01*
X74892Y110629D01*
X74876Y110646D01*
X74827Y110711D01*
X74761Y110777D01*
X74695Y110875D01*
Y110908D01*
X74679Y110974D01*
X74663Y111072D01*
X74646Y111187D01*
Y112696D01*
X74990D01*
Y111236D01*
Y111220D01*
Y111170D01*
X75023Y111039D01*
Y111023D01*
X75056Y110990D01*
X75089Y110941D01*
X75138Y110875D01*
X75155Y110859D01*
X75187Y110843D01*
X75269Y110777D01*
X75318D01*
X75384Y110760D01*
X75532D01*
X75647Y110777D01*
X75663D01*
X75696Y110810D01*
X75794Y110875D01*
X75810Y110892D01*
X75827Y110924D01*
X75893Y111039D01*
Y111056D01*
X75909Y111089D01*
X75925Y111154D01*
Y111236D01*
Y112696D01*
X76270D01*
Y111187D01*
D02*
G37*
G36*
X64495D02*
Y111154D01*
Y111089D01*
X64462Y110990D01*
X64429Y110875D01*
X64412Y110859D01*
X64396Y110793D01*
X64331Y110711D01*
X64249Y110629D01*
X64232Y110613D01*
X64183Y110564D01*
X64101Y110514D01*
X64003Y110465D01*
X63970D01*
X63904Y110449D01*
X63806Y110433D01*
X63674Y110416D01*
X63576D01*
X63478Y110433D01*
X63363Y110465D01*
X63346Y110482D01*
X63281Y110498D01*
X63199Y110564D01*
X63117Y110629D01*
X63100Y110646D01*
X63051Y110711D01*
X62986Y110777D01*
X62920Y110875D01*
Y110908D01*
X62904Y110974D01*
X62887Y111072D01*
X62871Y111187D01*
Y112696D01*
X63215D01*
Y111236D01*
Y111220D01*
Y111170D01*
X63248Y111039D01*
Y111023D01*
X63281Y110990D01*
X63346Y110875D01*
X63363Y110859D01*
X63396Y110843D01*
X63494Y110777D01*
X63543D01*
X63609Y110760D01*
X63806D01*
X63855Y110777D01*
X63871D01*
X63904Y110810D01*
X64003Y110875D01*
X64019Y110892D01*
X64052Y110924D01*
X64085Y110974D01*
X64117Y111039D01*
Y111056D01*
X64134Y111089D01*
X64150Y111154D01*
Y111236D01*
Y112696D01*
X64495D01*
Y111187D01*
D02*
G37*
G36*
X100788Y110433D02*
X100443D01*
Y112696D01*
X100788D01*
Y110433D01*
D02*
G37*
G36*
X99394Y112679D02*
X99476Y112663D01*
X99492D01*
X99541Y112646D01*
X99673Y112565D01*
X99689Y112548D01*
X99738Y112499D01*
X99787Y112433D01*
X99836Y112351D01*
X99853Y112335D01*
X99869Y112269D01*
X99886Y112187D01*
X99902Y112073D01*
Y112056D01*
Y112040D01*
X99886Y111925D01*
X99853Y111794D01*
X99787Y111662D01*
X99771Y111646D01*
X99705Y111581D01*
X99607Y111498D01*
X99476Y111433D01*
X99984Y110433D01*
X99590D01*
X99098Y111400D01*
X98672D01*
Y110433D01*
X98328D01*
Y112696D01*
X99295D01*
X99394Y112679D01*
D02*
G37*
G36*
X97934Y112400D02*
X97311D01*
Y110433D01*
X96966D01*
Y112400D01*
X96343D01*
Y112696D01*
X97934D01*
Y112400D01*
D02*
G37*
G36*
X94146Y112384D02*
X93031D01*
Y111728D01*
X93982D01*
Y111416D01*
X93031D01*
Y110760D01*
X94146D01*
Y110433D01*
X92686D01*
Y112696D01*
X94146D01*
Y112384D01*
D02*
G37*
G36*
X91095Y110760D02*
X92211D01*
Y110433D01*
X90751D01*
Y112696D01*
X91095D01*
Y110760D01*
D02*
G37*
G36*
X90259Y112384D02*
X89160D01*
Y111728D01*
X90111D01*
Y111416D01*
X89160D01*
Y110760D01*
X90259D01*
Y110433D01*
X88816D01*
Y112696D01*
X90259D01*
Y112384D01*
D02*
G37*
G36*
X87389D02*
X86290D01*
Y111728D01*
X87241D01*
Y111416D01*
X86290D01*
Y110760D01*
X87389D01*
Y110433D01*
X85946D01*
Y112696D01*
X87389D01*
Y112384D01*
D02*
G37*
G36*
X85552Y110433D02*
X85175D01*
X85011Y110924D01*
X84142D01*
X83978Y110433D01*
X83600D01*
X84437Y112696D01*
X84716D01*
X85552Y110433D01*
D02*
G37*
G36*
X80517D02*
X80140D01*
X79976Y110924D01*
X79107D01*
X78943Y110433D01*
X78566D01*
X79402Y112696D01*
X79681D01*
X80517Y110433D01*
D02*
G37*
G36*
X77205Y110760D02*
X78336D01*
Y110433D01*
X76876D01*
Y112696D01*
X77205D01*
Y110760D01*
D02*
G37*
G36*
X71055Y112679D02*
X71136Y112663D01*
X71153D01*
X71202Y112646D01*
X71284Y112614D01*
X71366Y112565D01*
X71382Y112548D01*
X71415Y112499D01*
X71465Y112433D01*
X71514Y112351D01*
X71530Y112335D01*
X71547Y112269D01*
X71563Y112187D01*
X71579Y112073D01*
Y112056D01*
Y112040D01*
X71563Y111925D01*
X71530Y111794D01*
X71465Y111662D01*
X71448Y111646D01*
X71382Y111581D01*
X71284Y111498D01*
X71136Y111433D01*
X71678Y110433D01*
X71251D01*
X70792Y111400D01*
X70333D01*
Y110433D01*
X69989D01*
Y112696D01*
X70973D01*
X71055Y112679D01*
D02*
G37*
G36*
X67463Y112384D02*
X66364D01*
Y111712D01*
X67315D01*
Y111400D01*
X66364D01*
Y110433D01*
X66020D01*
Y112696D01*
X67463D01*
Y112384D01*
D02*
G37*
G36*
X62494D02*
X61379D01*
Y111712D01*
X62330D01*
Y111400D01*
X61379D01*
Y110433D01*
X61034D01*
Y112696D01*
X62494D01*
Y112384D01*
D02*
G37*
G36*
X68791Y112696D02*
X68873Y112679D01*
X68890D01*
X68939Y112663D01*
X69004Y112646D01*
X69070Y112597D01*
X69086Y112581D01*
X69136Y112565D01*
X69234Y112466D01*
X69251Y112450D01*
X69267Y112417D01*
X69332Y112319D01*
X69349Y112286D01*
X69382Y112204D01*
X69398Y112171D01*
X69431Y112089D01*
Y112073D01*
Y112040D01*
Y111974D01*
Y111892D01*
Y111876D01*
X69447Y111810D01*
Y111712D01*
Y111581D01*
Y111564D01*
Y111548D01*
Y111466D01*
Y111351D01*
X69431Y111236D01*
Y111220D01*
Y111170D01*
Y111105D01*
Y111039D01*
Y111023D01*
X69415Y111006D01*
X69382Y110908D01*
X69365Y110875D01*
X69332Y110810D01*
Y110793D01*
X69316Y110760D01*
X69234Y110662D01*
X69218Y110646D01*
X69185Y110629D01*
X69136Y110580D01*
X69070Y110531D01*
X69054D01*
X69021Y110498D01*
X68955Y110482D01*
X68873Y110449D01*
X68857D01*
X68808Y110433D01*
X68726Y110416D01*
X68545D01*
X68463Y110433D01*
X68381Y110449D01*
X68365D01*
X68316Y110465D01*
X68185Y110531D01*
X68168Y110547D01*
X68135Y110580D01*
X68020Y110662D01*
X68004Y110679D01*
X67988Y110711D01*
X67922Y110810D01*
X67906Y110826D01*
X67889Y110859D01*
Y110875D01*
X67873Y110908D01*
Y110924D01*
X67857Y110957D01*
Y110974D01*
Y110990D01*
X67840Y111039D01*
Y111056D01*
Y111089D01*
Y111154D01*
X67824Y111236D01*
Y111252D01*
Y111335D01*
X67807Y111433D01*
Y111581D01*
Y111597D01*
Y111613D01*
Y111695D01*
Y111794D01*
X67824Y111892D01*
Y111908D01*
X67840Y111974D01*
Y112023D01*
Y112089D01*
Y112105D01*
X67857Y112122D01*
X67873Y112204D01*
Y112220D01*
X67889Y112236D01*
X67922Y112319D01*
Y112335D01*
X67955Y112368D01*
X68020Y112466D01*
X68037Y112483D01*
X68070Y112515D01*
X68119Y112565D01*
X68185Y112597D01*
X68201Y112614D01*
X68234Y112630D01*
X68299Y112663D01*
X68381Y112679D01*
X68398D01*
X68463Y112696D01*
X68529Y112712D01*
X68709D01*
X68791Y112696D01*
D02*
G37*
G36*
X51588Y122405D02*
X51604Y122372D01*
X51653Y122322D01*
X51719Y122240D01*
X51784Y122159D01*
X51867Y122044D01*
X51965Y121913D01*
X52063Y121781D01*
X52293Y121453D01*
X52506Y121076D01*
X52736Y120650D01*
X52933Y120207D01*
Y120191D01*
X52949Y120158D01*
X52982Y120092D01*
X53014Y119994D01*
X53047Y119879D01*
X53096Y119748D01*
X53146Y119600D01*
X53195Y119420D01*
X53293Y119043D01*
X53392Y118616D01*
X53457Y118140D01*
X53506Y117648D01*
Y117632D01*
Y117583D01*
Y117517D01*
Y117419D01*
Y117304D01*
Y117157D01*
Y116992D01*
X53490Y116812D01*
X53457Y116419D01*
X53408Y115976D01*
X53310Y115500D01*
X53195Y115008D01*
Y114992D01*
X53179Y114959D01*
X53162Y114877D01*
X53129Y114795D01*
X53080Y114680D01*
X53031Y114549D01*
X52982Y114385D01*
X52916Y114221D01*
X52752Y113860D01*
X52555Y113467D01*
X52326Y113040D01*
X52047Y112630D01*
X52030Y112614D01*
X52014Y112581D01*
X51965Y112532D01*
X51899Y112450D01*
X51834Y112351D01*
X51735Y112236D01*
X51522Y111990D01*
X51243Y111695D01*
X50915Y111384D01*
X50555Y111056D01*
X50144Y110760D01*
X50128D01*
X50095Y110728D01*
X50030Y110695D01*
X49948Y110646D01*
X49849Y110580D01*
X49735Y110498D01*
X49587Y110416D01*
X49439Y110334D01*
X49079Y110154D01*
X48669Y109973D01*
X48226Y109793D01*
X47750Y109645D01*
X47734D01*
X47668Y109629D01*
X47553Y109596D01*
X47422Y109563D01*
X47258Y109530D01*
X47094Y109498D01*
X46701Y109432D01*
X46684D01*
X46619Y109416D01*
X46504D01*
X46373Y109399D01*
X46225Y109383D01*
X46044D01*
X45651Y109367D01*
X45520D01*
X45372Y109383D01*
X45175D01*
X44929Y109399D01*
X44683Y109432D01*
X44405Y109465D01*
X44109Y109514D01*
X44076D01*
X43978Y109547D01*
X43830Y109580D01*
X43634Y109629D01*
X43404Y109695D01*
X43158Y109776D01*
X42617Y109973D01*
X42748Y110318D01*
X42764D01*
X42797Y110301D01*
X42863Y110268D01*
X42961Y110236D01*
X43076Y110187D01*
X43207Y110154D01*
X43355Y110105D01*
X43519Y110055D01*
X43896Y109941D01*
X44322Y109842D01*
X44765Y109776D01*
X45241Y109727D01*
X46028D01*
X46389Y109760D01*
X46815Y109809D01*
X47258Y109875D01*
X47701Y109990D01*
X47717D01*
X47750Y110006D01*
X47816Y110022D01*
X47898Y110055D01*
X48013Y110088D01*
X48127Y110137D01*
X48423Y110252D01*
X48767Y110400D01*
X49144Y110580D01*
X49538Y110810D01*
X49931Y111056D01*
X49948Y111072D01*
X49981Y111089D01*
X50030Y111121D01*
X50112Y111187D01*
X50194Y111252D01*
X50309Y111335D01*
X50555Y111548D01*
X50833Y111810D01*
X51145Y112105D01*
X51456Y112450D01*
X51752Y112843D01*
X51768Y112860D01*
X51784Y112892D01*
X51834Y112958D01*
X51883Y113024D01*
X51948Y113122D01*
X52014Y113253D01*
X52096Y113384D01*
X52178Y113532D01*
X52359Y113876D01*
X52555Y114270D01*
X52719Y114680D01*
X52867Y115139D01*
Y115156D01*
X52883Y115189D01*
X52900Y115254D01*
X52916Y115352D01*
X52949Y115467D01*
X52982Y115598D01*
X53014Y115746D01*
X53047Y115910D01*
X53096Y116271D01*
X53146Y116697D01*
X53162Y117124D01*
Y117583D01*
Y117599D01*
Y117632D01*
Y117698D01*
X53146Y117796D01*
X53129Y117911D01*
Y118042D01*
X53096Y118190D01*
X53080Y118354D01*
X53014Y118714D01*
X52916Y119124D01*
X52801Y119567D01*
X52637Y120010D01*
Y120027D01*
X52621Y120059D01*
X52588Y120125D01*
X52555Y120207D01*
X52506Y120322D01*
X52441Y120437D01*
X52293Y120732D01*
X52113Y121060D01*
X51883Y121421D01*
X51604Y121798D01*
X51293Y122175D01*
X51571Y122421D01*
X51588Y122405D01*
D02*
G37*
G36*
X52933Y125947D02*
X52949Y125898D01*
X52965Y125881D01*
X52982Y125865D01*
X52965Y125848D01*
X52949Y125832D01*
X52900Y125783D01*
X52851Y125717D01*
X52687Y125537D01*
X52473Y125307D01*
X52227Y125029D01*
X51965Y124717D01*
X51670Y124389D01*
X51358Y124045D01*
X51342Y124028D01*
X51325Y124012D01*
X51276Y123962D01*
X51227Y123897D01*
X51063Y123716D01*
X50850Y123487D01*
X50620Y123208D01*
X50341Y122897D01*
X50046Y122569D01*
X49751Y122224D01*
X49735Y122208D01*
X49718Y122191D01*
X49669Y122142D01*
X49620Y122076D01*
X49456Y121896D01*
X49242Y121667D01*
X48996Y121388D01*
X48718Y121076D01*
X48423Y120748D01*
X48111Y120404D01*
X48094Y120387D01*
X48078Y120371D01*
X48029Y120322D01*
X47980Y120256D01*
X47816Y120076D01*
X47602Y119846D01*
X47357Y119567D01*
X47078Y119256D01*
X46782Y118928D01*
X46471Y118583D01*
X46487D01*
X46520Y118567D01*
X46569Y118551D01*
X46635Y118534D01*
X46717Y118518D01*
X46832Y118485D01*
X47078Y118419D01*
X47373Y118337D01*
X47684Y118255D01*
X48029Y118157D01*
X48390Y118059D01*
X48406D01*
X48439Y118042D01*
X48488D01*
X48554Y118009D01*
X48636Y117993D01*
X48750Y117960D01*
X48996Y117911D01*
X49275Y117829D01*
X49603Y117747D01*
X49964Y117648D01*
X50325Y117550D01*
X50309Y117534D01*
X50243Y117484D01*
X50161Y117435D01*
X50079Y117370D01*
X50063Y117353D01*
X50013Y117321D01*
X49948Y117255D01*
X49866Y117189D01*
X49849Y117173D01*
X49800Y117140D01*
X49718Y117075D01*
X49620Y117009D01*
X49488Y116911D01*
X49325Y116796D01*
X49144Y116665D01*
X48947Y116517D01*
X48734Y116353D01*
X48504Y116189D01*
X48013Y115812D01*
X47488Y115418D01*
X46946Y115008D01*
X46930Y114992D01*
X46881Y114959D01*
X46799Y114893D01*
X46701Y114828D01*
X46569Y114729D01*
X46422Y114614D01*
X46241Y114483D01*
X46044Y114336D01*
X45848Y114172D01*
X45618Y114008D01*
X45126Y113630D01*
X44601Y113237D01*
X44060Y112827D01*
X44044Y112811D01*
X43995Y112778D01*
X43913Y112729D01*
X43814Y112646D01*
X43683Y112548D01*
X43535Y112433D01*
X43355Y112302D01*
X43158Y112154D01*
X42945Y111990D01*
X42715Y111827D01*
X42240Y111466D01*
X41715Y111072D01*
X41174Y110662D01*
X41157Y110646D01*
X41108Y110613D01*
X41026Y110547D01*
X40928Y110482D01*
X40797Y110383D01*
X40633Y110252D01*
X40468Y110121D01*
X40272Y109973D01*
X40058Y109826D01*
X39829Y109645D01*
X39337Y109284D01*
X38812Y108891D01*
X38271Y108497D01*
X38254Y108481D01*
X38222Y108448D01*
X38156Y108382D01*
X38074Y108317D01*
X38058Y108300D01*
X38008Y108284D01*
X37959Y108268D01*
X37943Y108284D01*
X37927Y108300D01*
Y108317D01*
X37910Y108366D01*
X37927Y108415D01*
X37992Y108481D01*
X38008Y108497D01*
X38074Y108530D01*
X38123Y108579D01*
X38189Y108628D01*
Y108645D01*
X38222Y108661D01*
X38304Y108743D01*
X38435Y108891D01*
X38599Y109071D01*
X38796Y109284D01*
X39025Y109530D01*
X39271Y109793D01*
X39517Y110055D01*
Y110072D01*
X39550Y110088D01*
X39632Y110170D01*
X39763Y110318D01*
X39927Y110498D01*
X40124Y110711D01*
X40354Y110941D01*
X40583Y111203D01*
X40829Y111466D01*
Y111482D01*
X40862Y111498D01*
X40944Y111581D01*
X41075Y111728D01*
X41239Y111908D01*
X41436Y112122D01*
X41666Y112368D01*
X41912Y112630D01*
X42158Y112892D01*
Y112909D01*
X42191Y112925D01*
X42272Y113007D01*
X42404Y113155D01*
X42568Y113335D01*
X42764Y113549D01*
X42994Y113778D01*
X43240Y114041D01*
X43486Y114303D01*
X43503Y114319D01*
X43535Y114352D01*
X43584Y114401D01*
X43650Y114483D01*
X43798Y114647D01*
X43995Y114844D01*
X44011Y114860D01*
X44044Y114893D01*
X44093Y114943D01*
X44159Y115024D01*
X44322Y115221D01*
X44503Y115451D01*
X44486D01*
X44470Y115467D01*
X44372Y115500D01*
X44208Y115549D01*
X44011Y115615D01*
X43765Y115697D01*
X43503Y115795D01*
X43224Y115877D01*
X42928Y115976D01*
X42912D01*
X42896Y115992D01*
X42797Y116025D01*
X42650Y116074D01*
X42437Y116140D01*
X42207Y116222D01*
X41945Y116320D01*
X41649Y116419D01*
X41354Y116517D01*
X41370Y116533D01*
X41420Y116566D01*
X41502Y116632D01*
X41600Y116730D01*
X41731Y116829D01*
X41895Y116960D01*
X42076Y117107D01*
X42272Y117271D01*
X42486Y117435D01*
X42715Y117632D01*
X43207Y118026D01*
X43732Y118452D01*
X44273Y118895D01*
X44290Y118911D01*
X44339Y118944D01*
X44421Y119010D01*
X44519Y119092D01*
X44651Y119207D01*
X44815Y119321D01*
X44995Y119469D01*
X45192Y119633D01*
X45388Y119797D01*
X45618Y119977D01*
X46110Y120371D01*
X46635Y120797D01*
X47176Y121240D01*
X47192Y121256D01*
X47242Y121289D01*
X47324Y121355D01*
X47422Y121453D01*
X47553Y121552D01*
X47701Y121683D01*
X47881Y121830D01*
X48078Y121994D01*
X48291Y122159D01*
X48504Y122355D01*
X48996Y122749D01*
X49521Y123175D01*
X50046Y123618D01*
X50063Y123635D01*
X50112Y123667D01*
X50194Y123733D01*
X50292Y123815D01*
X50423Y123930D01*
X50587Y124045D01*
X50751Y124192D01*
X50948Y124356D01*
X51161Y124520D01*
X51391Y124700D01*
X51867Y125094D01*
X52391Y125521D01*
X52933Y125963D01*
Y125947D01*
D02*
G37*
G36*
X117204Y5790D02*
X117291Y5785D01*
X117368Y5773D01*
X117428Y5763D01*
X117471Y5752D01*
X117499Y5746D01*
X117509Y5741D01*
X117591Y5719D01*
X117662Y5692D01*
X117733Y5659D01*
X117788Y5632D01*
X117832Y5604D01*
X117870Y5582D01*
X117892Y5566D01*
X117897Y5561D01*
X117946Y5506D01*
X117990Y5446D01*
X118023Y5386D01*
X118045Y5331D01*
X118061Y5277D01*
X118077Y5233D01*
X118083Y5206D01*
Y5200D01*
Y5195D01*
X118094Y5102D01*
Y5004D01*
X118088Y4911D01*
X118077Y4818D01*
X118061Y4736D01*
X118050Y4676D01*
X118045Y4649D01*
Y4632D01*
X118039Y4622D01*
Y4616D01*
X117417Y2143D01*
X117373Y2022D01*
X117318Y1913D01*
X117253Y1815D01*
X117182Y1733D01*
X117116Y1668D01*
X117062Y1619D01*
X117040Y1602D01*
X117029Y1591D01*
X117018Y1586D01*
X117013Y1580D01*
X116893Y1504D01*
X116772Y1449D01*
X116652Y1411D01*
X116549Y1384D01*
X116456Y1367D01*
X116418Y1362D01*
X116385D01*
X116358Y1356D01*
X115604D01*
X116319Y4212D01*
X116341Y4305D01*
X116347Y4381D01*
Y4447D01*
X116341Y4501D01*
X116330Y4540D01*
X116319Y4572D01*
X116314Y4589D01*
X116308Y4594D01*
X116276Y4638D01*
X116226Y4665D01*
X116177Y4687D01*
X116123Y4703D01*
X116074Y4714D01*
X116035Y4720D01*
X115997D01*
X115910Y4714D01*
X115833Y4698D01*
X115762Y4682D01*
X115708Y4660D01*
X115659Y4632D01*
X115626Y4616D01*
X115604Y4600D01*
X115598Y4594D01*
X115544Y4540D01*
X115500Y4479D01*
X115462Y4420D01*
X115435Y4354D01*
X115407Y4299D01*
X115391Y4256D01*
X115386Y4223D01*
X115380Y4217D01*
Y4212D01*
X114665Y1356D01*
X113054D01*
X113764Y4206D01*
X113786Y4299D01*
X113797Y4376D01*
Y4447D01*
X113791Y4501D01*
X113780Y4540D01*
X113769Y4572D01*
X113764Y4589D01*
X113759Y4594D01*
X113720Y4638D01*
X113677Y4665D01*
X113622Y4687D01*
X113567Y4703D01*
X113518Y4714D01*
X113480Y4720D01*
X113442D01*
X113360Y4714D01*
X113284Y4698D01*
X113218Y4682D01*
X113163Y4660D01*
X113120Y4632D01*
X113087Y4616D01*
X113065Y4600D01*
X113060Y4594D01*
X113005Y4540D01*
X112961Y4479D01*
X112923Y4420D01*
X112896Y4354D01*
X112874Y4299D01*
X112858Y4256D01*
X112852Y4223D01*
X112847Y4217D01*
Y4212D01*
X112126Y1356D01*
X110515D01*
X111596Y5681D01*
X113223D01*
X113098Y5157D01*
X113114D01*
X113213Y5271D01*
X113311Y5370D01*
X113415Y5451D01*
X113507Y5517D01*
X113589Y5571D01*
X113622Y5593D01*
X113649Y5610D01*
X113677Y5621D01*
X113693Y5632D01*
X113704Y5637D01*
X113709D01*
X113840Y5692D01*
X113977Y5730D01*
X114108Y5763D01*
X114234Y5779D01*
X114288Y5790D01*
X114337D01*
X114381Y5795D01*
X114419Y5801D01*
X114588D01*
X114676Y5795D01*
X114752Y5790D01*
X114818Y5779D01*
X114872Y5773D01*
X114911Y5763D01*
X114932Y5757D01*
X114943D01*
X115014Y5741D01*
X115074Y5724D01*
X115129Y5703D01*
X115178Y5681D01*
X115216Y5664D01*
X115244Y5648D01*
X115260Y5643D01*
X115266Y5637D01*
X115309Y5604D01*
X115347Y5566D01*
X115386Y5533D01*
X115413Y5500D01*
X115435Y5468D01*
X115451Y5446D01*
X115457Y5430D01*
X115462Y5424D01*
X115511Y5326D01*
X115533Y5277D01*
X115549Y5227D01*
X115560Y5189D01*
X115571Y5157D01*
X115577Y5135D01*
Y5129D01*
X115631Y5195D01*
X115686Y5255D01*
X115735Y5309D01*
X115784Y5359D01*
X115828Y5397D01*
X115861Y5424D01*
X115882Y5441D01*
X115888Y5446D01*
X115953Y5495D01*
X116019Y5533D01*
X116079Y5566D01*
X116134Y5599D01*
X116183Y5621D01*
X116221Y5637D01*
X116243Y5643D01*
X116254Y5648D01*
X116390Y5697D01*
X116450Y5719D01*
X116510Y5735D01*
X116554Y5746D01*
X116592Y5757D01*
X116620Y5763D01*
X116625D01*
X116762Y5785D01*
X116827Y5790D01*
X116887Y5795D01*
X116936Y5801D01*
X117111D01*
X117204Y5790D01*
D02*
G37*
G36*
X109718Y1351D02*
X108113D01*
X108238Y1870D01*
X108217D01*
X108118Y1760D01*
X108020Y1668D01*
X107922Y1586D01*
X107829Y1520D01*
X107747Y1471D01*
X107714Y1449D01*
X107687Y1433D01*
X107660Y1422D01*
X107643Y1411D01*
X107632Y1405D01*
X107627D01*
X107496Y1351D01*
X107365Y1313D01*
X107234Y1285D01*
X107114Y1269D01*
X107059Y1258D01*
X107010D01*
X106961Y1253D01*
X106928Y1247D01*
X106748D01*
X106655Y1253D01*
X106568Y1264D01*
X106497Y1275D01*
X106437Y1285D01*
X106393Y1291D01*
X106366Y1302D01*
X106355D01*
X106278Y1329D01*
X106207Y1356D01*
X106147Y1389D01*
X106093Y1422D01*
X106054Y1449D01*
X106022Y1471D01*
X106000Y1487D01*
X105994Y1493D01*
X105940Y1542D01*
X105891Y1597D01*
X105858Y1651D01*
X105831Y1706D01*
X105809Y1760D01*
X105798Y1799D01*
X105787Y1826D01*
Y1837D01*
X105776Y1930D01*
Y2022D01*
X105781Y2115D01*
X105792Y2208D01*
X105809Y2285D01*
X105820Y2350D01*
X105825Y2372D01*
Y2388D01*
X105831Y2399D01*
Y2405D01*
X106650Y5681D01*
X108260D01*
X107545Y2820D01*
X107529Y2727D01*
X107518Y2650D01*
Y2585D01*
X107529Y2530D01*
X107534Y2487D01*
X107545Y2459D01*
X107551Y2437D01*
X107556Y2432D01*
X107594Y2388D01*
X107638Y2356D01*
X107687Y2334D01*
X107742Y2317D01*
X107785Y2306D01*
X107824Y2301D01*
X107862D01*
X107949Y2306D01*
X108026Y2323D01*
X108091Y2345D01*
X108146Y2366D01*
X108189Y2388D01*
X108222Y2410D01*
X108244Y2427D01*
X108249Y2432D01*
X108304Y2487D01*
X108348Y2547D01*
X108386Y2612D01*
X108419Y2678D01*
X108440Y2732D01*
X108457Y2776D01*
X108462Y2809D01*
X108468Y2814D01*
Y2820D01*
X109188Y5681D01*
X110799D01*
X109718Y1351D01*
D02*
G37*
G36*
X104831D02*
X103221D01*
X104302Y5681D01*
X105918D01*
X104831Y1351D01*
D02*
G37*
G36*
X99568D02*
X97952D01*
X99388Y7062D01*
X100998D01*
X99568Y1351D01*
D02*
G37*
G36*
X97613D02*
X95751D01*
X95806Y2345D01*
X94419D01*
X93982Y1356D01*
X92126Y1351D01*
X94577Y5926D01*
X94632Y6019D01*
X94692Y6101D01*
X94752Y6183D01*
X94801Y6249D01*
X94850Y6303D01*
X94883Y6347D01*
X94905Y6369D01*
X94916Y6380D01*
X94993Y6456D01*
X95069Y6522D01*
X95140Y6582D01*
X95205Y6636D01*
X95266Y6674D01*
X95309Y6707D01*
X95337Y6729D01*
X95347Y6735D01*
X95440Y6789D01*
X95528Y6833D01*
X95615Y6876D01*
X95697Y6909D01*
X95762Y6937D01*
X95817Y6953D01*
X95833Y6958D01*
X95850Y6964D01*
X95855Y6969D01*
X95861D01*
X95964Y6997D01*
X96068Y7018D01*
X96166Y7035D01*
X96254Y7046D01*
X96330Y7057D01*
X96390D01*
X96412Y7062D01*
X97400D01*
X97613Y1351D01*
D02*
G37*
G36*
X103030Y5681D02*
X103707D01*
X103466Y4709D01*
X102789D01*
X102276Y2650D01*
X102265Y2590D01*
Y2536D01*
Y2492D01*
X102276Y2454D01*
X102287Y2427D01*
X102298Y2405D01*
X102303Y2394D01*
X102309Y2388D01*
X102347Y2361D01*
X102385Y2339D01*
X102435Y2328D01*
X102484Y2317D01*
X102527Y2312D01*
X102866D01*
X102626Y1351D01*
X102533Y1345D01*
X102445Y1340D01*
X102369Y1335D01*
X102298Y1329D01*
X102238D01*
X102189Y1324D01*
X102150D01*
X102069Y1318D01*
X101910D01*
X101845Y1313D01*
X101577D01*
X101457Y1318D01*
X101353Y1324D01*
X101261Y1335D01*
X101190Y1340D01*
X101135Y1351D01*
X101102Y1356D01*
X101091D01*
X101004Y1378D01*
X100927Y1400D01*
X100862Y1427D01*
X100807Y1449D01*
X100764Y1471D01*
X100736Y1487D01*
X100715Y1498D01*
X100709Y1504D01*
X100660Y1548D01*
X100622Y1597D01*
X100589Y1651D01*
X100567Y1700D01*
X100551Y1750D01*
X100540Y1788D01*
X100534Y1815D01*
Y1826D01*
X100529Y1913D01*
X100534Y2012D01*
X100545Y2104D01*
X100562Y2197D01*
X100573Y2279D01*
X100589Y2339D01*
X100594Y2366D01*
Y2383D01*
X100600Y2394D01*
Y2399D01*
X101763Y7002D01*
X103379D01*
X103030Y5681D01*
D02*
G37*
%LPC*%
G36*
X96852Y119387D02*
X96753D01*
X96639Y119370D01*
X96507Y119338D01*
X96343Y119305D01*
X96196Y119239D01*
X96048Y119157D01*
X95917Y119043D01*
X95900Y119026D01*
X95868Y118977D01*
X95819Y118895D01*
X95769Y118780D01*
X95704Y118632D01*
X95654Y118468D01*
X95622Y118255D01*
X95605Y118009D01*
Y117976D01*
Y117894D01*
X95622Y117780D01*
X95638Y117616D01*
X95687Y117452D01*
X95736Y117271D01*
X95819Y117107D01*
X95917Y116960D01*
X95933Y116943D01*
X95982Y116911D01*
X96048Y116845D01*
X96147Y116779D01*
X96278Y116714D01*
X96442Y116648D01*
X96639Y116615D01*
X96852Y116599D01*
X96950D01*
X97065Y116615D01*
X97196Y116648D01*
X97344Y116681D01*
X97491Y116746D01*
X97639Y116845D01*
X97754Y116960D01*
X97770Y116976D01*
X97803Y117025D01*
X97852Y117107D01*
X97918Y117222D01*
X97967Y117370D01*
X98016Y117550D01*
X98049Y117763D01*
X98065Y118009D01*
Y118042D01*
Y118124D01*
X98049Y118239D01*
X98032Y118403D01*
X97983Y118567D01*
X97934Y118731D01*
X97852Y118895D01*
X97754Y119043D01*
X97737Y119059D01*
X97704Y119092D01*
X97623Y119157D01*
X97524Y119223D01*
X97409Y119272D01*
X97245Y119338D01*
X97065Y119370D01*
X96852Y119387D01*
D02*
G37*
G36*
X99312Y112400D02*
X98672D01*
Y111712D01*
X99262D01*
X99361Y111728D01*
X99377D01*
X99410Y111744D01*
X99492Y111810D01*
X99509Y111827D01*
X99525Y111843D01*
X99558Y111925D01*
Y111941D01*
X99574Y111974D01*
Y112073D01*
Y112089D01*
Y112122D01*
X99541Y112220D01*
Y112236D01*
X99525Y112253D01*
X99476Y112335D01*
X99459D01*
X99443Y112351D01*
X99344Y112384D01*
X99328D01*
X99312Y112400D01*
D02*
G37*
G36*
X84568Y112236D02*
X84240Y111236D01*
X84896D01*
X84568Y112236D01*
D02*
G37*
G36*
X79550D02*
X79205Y111236D01*
X79878D01*
X79550Y112236D01*
D02*
G37*
G36*
X70989Y112400D02*
X70333D01*
Y111712D01*
X70923D01*
X71038Y111728D01*
X71055D01*
X71087Y111744D01*
X71120Y111777D01*
X71153Y111810D01*
X71169Y111827D01*
X71186Y111843D01*
X71219Y111925D01*
Y111941D01*
X71235Y111974D01*
X71251Y112073D01*
Y112089D01*
Y112122D01*
X71219Y112220D01*
Y112236D01*
X71202Y112253D01*
X71186Y112302D01*
X71136Y112335D01*
X71104Y112351D01*
X71071Y112368D01*
X71022Y112384D01*
X71005D01*
X70989Y112400D01*
D02*
G37*
G36*
X68627Y112384D02*
X68594Y112368D01*
X68512Y112351D01*
X68480D01*
X68414Y112335D01*
X68381Y112319D01*
X68332Y112269D01*
X68316Y112253D01*
X68283Y112220D01*
X68266Y112187D01*
X68217Y112122D01*
X68201Y112089D01*
X68185Y112023D01*
Y112007D01*
Y111990D01*
Y111925D01*
X68168Y111843D01*
Y111827D01*
Y111761D01*
Y111679D01*
Y111581D01*
Y111548D01*
Y111482D01*
Y111384D01*
Y111285D01*
Y111269D01*
X68185Y111220D01*
Y111154D01*
Y111105D01*
X68201Y111072D01*
X68217Y111006D01*
X68234Y110974D01*
X68283Y110908D01*
X68299Y110892D01*
X68332Y110843D01*
X68348Y110826D01*
X68414Y110810D01*
X68447Y110793D01*
X68512Y110760D01*
X68758D01*
X68775Y110777D01*
X68840Y110810D01*
X68857D01*
X68873Y110826D01*
X68923Y110843D01*
X68939Y110859D01*
X68972Y110908D01*
Y110924D01*
X68988Y110941D01*
X69021Y111006D01*
Y111023D01*
X69037Y111039D01*
X69070Y111105D01*
Y111121D01*
Y111154D01*
Y111203D01*
Y111285D01*
Y111302D01*
X69086Y111367D01*
Y111466D01*
Y111581D01*
Y111613D01*
Y111662D01*
Y111761D01*
X69070Y111843D01*
Y111859D01*
Y111908D01*
Y111974D01*
Y112023D01*
Y112040D01*
X69054Y112056D01*
X69021Y112122D01*
Y112138D01*
X69004Y112154D01*
X68972Y112220D01*
X68955Y112236D01*
X68923Y112269D01*
X68906Y112286D01*
X68840Y112335D01*
X68824Y112351D01*
X68742D01*
X68709Y112368D01*
X68627Y112384D01*
D02*
G37*
G36*
X96003Y5817D02*
X94900Y3437D01*
X95866D01*
X96003Y5817D01*
D02*
G37*
%LPD*%
D10*
X106398Y25689D02*
G03*
X106398Y25689I-492J0D01*
G01*
X123228Y84646D02*
G03*
X123228Y84646I-492J0D01*
G01*
X164665Y65256D02*
G03*
X164665Y65256I-492J0D01*
G01*
X65256Y49213D02*
G03*
X65256Y49213I-492J0D01*
G01*
X130217Y66535D02*
G03*
X130217Y66535I-492J0D01*
G01*
X100394Y41929D02*
G03*
X100394Y41929I-492J0D01*
G01*
X165945Y97438D02*
Y93502D01*
X167913D01*
X168569Y94158D01*
Y94814D01*
X167913Y95470D01*
X165945D01*
X167913D01*
X168569Y96126D01*
Y96782D01*
X167913Y97438D01*
X165945D01*
X172504Y96782D02*
X171848Y97438D01*
X170537D01*
X169881Y96782D01*
Y96126D01*
X170537Y95470D01*
X171848D01*
X172504Y94814D01*
Y94158D01*
X171848Y93502D01*
X170537D01*
X169881Y94158D01*
X173816Y93502D02*
Y97438D01*
X175784D01*
X176440Y96782D01*
Y95470D01*
X175784Y94814D01*
X173816D01*
X177752Y97438D02*
Y93502D01*
X179720D01*
X180376Y94158D01*
Y96782D01*
X179720Y97438D01*
X177752D01*
X165945Y86417D02*
Y90353D01*
X167913D01*
X168569Y89697D01*
Y88385D01*
X167913Y87729D01*
X165945D01*
X167257D02*
X168569Y86417D01*
X172504Y90353D02*
X169881D01*
Y86417D01*
X172504D01*
X169881Y88385D02*
X171193D01*
X173816Y90353D02*
Y87729D01*
X175128Y86417D01*
X176440Y87729D01*
Y90353D01*
X180376Y86417D02*
X177752D01*
X180376Y89041D01*
Y89697D01*
X179720Y90353D01*
X178408D01*
X177752Y89697D01*
D11*
X70669Y57284D02*
G03*
X70669Y57284I-1181J0D01*
G01*
D12*
X111417Y15945D02*
Y24606D01*
X109055Y15945D02*
Y24606D01*
Y15945D02*
X111417D01*
X109055Y24606D02*
X111417D01*
X112992Y79134D02*
X121653D01*
X112992Y81496D02*
X121653D01*
X112992Y79134D02*
Y81496D01*
X121653Y79134D02*
Y81496D01*
X165354Y70866D02*
X174016D01*
X165354Y68504D02*
X174016D01*
Y70866D01*
X165354Y68504D02*
Y70866D01*
X65551Y53347D02*
X77756D01*
X65551Y62401D02*
X77756D01*
X65551Y53347D02*
Y62401D01*
X77756Y53347D02*
Y62401D01*
X118504Y94095D02*
Y100000D01*
X105512Y94095D02*
Y100000D01*
X117323D01*
Y94095D02*
Y100000D01*
X105512Y94095D02*
X117323D01*
X118504Y110630D02*
Y116535D01*
X105512Y110630D02*
Y116535D01*
X117323D01*
Y110630D02*
Y116535D01*
X105512Y110630D02*
X117323D01*
X138189Y53150D02*
Y55906D01*
X134252Y53150D02*
X138189D01*
Y62205D02*
Y64961D01*
X134252D02*
X138189D01*
X101378Y44882D02*
X109646D01*
X101378Y51181D02*
X109646D01*
X101378Y44882D02*
Y51181D01*
X109646Y44882D02*
Y51181D01*
D13*
X186811Y132127D02*
Y134127D01*
X9645Y132127D02*
Y134127D01*
X180810Y131127D02*
X186811Y133127D01*
X180810Y135127D02*
X186811Y133127D01*
X9645D02*
X15645Y131127D01*
X9645Y133127D02*
X15645Y135127D01*
X118322Y133127D02*
X186811D01*
X9645D02*
X78134D01*
X190732Y128847D02*
X192732D01*
X190732Y500D02*
X192732D01*
X191732Y128847D02*
X193732Y122846D01*
X189732D02*
X191732Y128847D01*
Y500D02*
X193732Y6500D01*
X189732D02*
X191732Y500D01*
Y90266D02*
Y128847D01*
Y500D02*
Y39081D01*
X108529Y106298D02*
X105905D01*
Y104330D01*
X107217D01*
X105905D01*
Y102362D01*
X109841Y106298D02*
Y102362D01*
X112465D01*
X113777Y106298D02*
X116401D01*
X115089D01*
Y102362D01*
X105905Y118898D02*
Y122833D01*
X107873D01*
X108529Y122177D01*
Y120865D01*
X107873Y120210D01*
X105905D01*
X109841Y122833D02*
Y118898D01*
X111153Y120210D01*
X112465Y118898D01*
Y122833D01*
X113777Y118898D02*
Y122833D01*
X115745D01*
X116401Y122177D01*
Y120865D01*
X115745Y120210D01*
X113777D01*
X115089D02*
X116401Y118898D01*
X84455Y73487D02*
Y69488D01*
X87454D01*
Y71487D01*
Y69488D01*
X90453D01*
Y79485D02*
Y75486D01*
X86454Y79485D01*
X85454D01*
X84455Y78485D01*
Y76486D01*
X85454Y75486D01*
X58465Y10630D02*
X52466D01*
Y13629D01*
X53466Y14629D01*
X55466D01*
X56465Y13629D01*
Y10630D01*
Y12629D02*
X58465Y14629D01*
Y20627D02*
Y16628D01*
X54466Y20627D01*
X53466D01*
X52466Y19627D01*
Y17628D01*
X53466Y16628D01*
X85335Y12992D02*
X79337D01*
Y15991D01*
X80336Y16991D01*
X82336D01*
X83335Y15991D01*
Y12992D01*
Y14991D02*
X85335Y16991D01*
Y18990D02*
Y20989D01*
Y19990D01*
X79337D01*
X80336Y18990D01*
X51089Y41794D02*
Y37795D01*
X54088D01*
Y39795D01*
Y37795D01*
X57087D01*
Y43793D02*
Y45793D01*
Y44793D01*
X51089D01*
X52088Y43793D01*
X108268Y32770D02*
Y27771D01*
X109267Y26772D01*
X111267D01*
X112266Y27771D01*
Y32770D01*
X118264D02*
X114266D01*
Y29771D01*
X116265Y30770D01*
X117265D01*
X118264Y29771D01*
Y27771D01*
X117265Y26772D01*
X115266D01*
X114266Y27771D01*
X172441Y42126D02*
Y48124D01*
X175440D01*
X176440Y47124D01*
Y45125D01*
X175440Y44125D01*
X172441D01*
X174440D02*
X176440Y42126D01*
X182438Y48124D02*
X178439D01*
Y45125D01*
X180438Y46125D01*
X181438D01*
X182438Y45125D01*
Y43126D01*
X181438Y42126D01*
X179439D01*
X178439Y43126D01*
X54844Y96912D02*
X53844Y95912D01*
Y93913D01*
X54844Y92913D01*
X58843D01*
X59842Y93913D01*
Y95912D01*
X58843Y96912D01*
X59842Y102910D02*
Y98911D01*
X55844Y102910D01*
X54844D01*
X53844Y101910D01*
Y99911D01*
X54844Y98911D01*
X56994Y61417D02*
X61992D01*
X62992Y62417D01*
Y64416D01*
X61992Y65416D01*
X56994D01*
X62992Y67415D02*
Y69415D01*
Y68415D01*
X56994D01*
X57994Y67415D01*
X156600Y66535D02*
X161599D01*
X162598Y67535D01*
Y69534D01*
X161599Y70534D01*
X156600D01*
X162598Y75533D02*
X156600D01*
X159599Y72534D01*
Y76532D01*
X81496Y92520D02*
X75498D01*
Y95519D01*
X76498Y96518D01*
X78497D01*
X79497Y95519D01*
Y92520D01*
Y94519D02*
X81496Y96518D01*
Y98518D02*
Y100517D01*
Y99517D01*
X75498D01*
X76498Y98518D01*
X81496Y107515D02*
Y103516D01*
X77497Y107515D01*
X76498D01*
X75498Y106515D01*
Y104516D01*
X76498Y103516D01*
X69291Y92520D02*
X63293D01*
Y95519D01*
X64293Y96518D01*
X66292D01*
X67292Y95519D01*
Y92520D01*
Y94519D02*
X69291Y96518D01*
Y98518D02*
Y100517D01*
Y99517D01*
X63293D01*
X64293Y98518D01*
X69291Y103516D02*
Y105516D01*
Y104516D01*
X63293D01*
X64293Y103516D01*
X120472Y100093D02*
Y94095D01*
X123471D01*
X124471Y95094D01*
Y99093D01*
X123471Y100093D01*
X120472D01*
X130469Y94095D02*
X126470D01*
X130469Y98093D01*
Y99093D01*
X129470Y100093D01*
X127470D01*
X126470Y99093D01*
X120472Y116628D02*
Y110630D01*
X123471D01*
X124471Y111630D01*
Y115628D01*
X123471Y116628D01*
X120472D01*
X126470Y110630D02*
X128470D01*
X127470D01*
Y116628D01*
X126470Y115628D01*
X101181Y76575D02*
X95183D01*
Y79574D01*
X96183Y80573D01*
X98182D01*
X99182Y79574D01*
Y76575D01*
Y78574D02*
X101181Y80573D01*
Y82573D02*
Y84572D01*
Y83573D01*
X95183D01*
X96183Y82573D01*
Y87571D02*
X95183Y88571D01*
Y90570D01*
X96183Y91570D01*
X100181D01*
X101181Y90570D01*
Y88571D01*
X100181Y87571D01*
X96183D01*
X89862Y81693D02*
X83864D01*
Y84692D01*
X84864Y85692D01*
X86863D01*
X87863Y84692D01*
Y81693D01*
Y83692D02*
X89862Y85692D01*
X88863Y87691D02*
X89862Y88691D01*
Y90690D01*
X88863Y91690D01*
X84864D01*
X83864Y90690D01*
Y88691D01*
X84864Y87691D01*
X85864D01*
X86863Y88691D01*
Y91690D01*
X151637Y100668D02*
X150637Y101667D01*
X148637D01*
X147638Y100668D01*
Y96669D01*
X148637Y95669D01*
X150637D01*
X151637Y96669D01*
X153636Y95669D02*
X155635D01*
X154636D01*
Y101667D01*
X153636Y100668D01*
X147244Y81496D02*
Y87494D01*
X150243D01*
X151243Y86494D01*
Y84495D01*
X150243Y83495D01*
X147244D01*
X149243D02*
X151243Y81496D01*
X156241D02*
Y87494D01*
X153242Y84495D01*
X157241D01*
X147638Y109449D02*
Y115447D01*
X150637D01*
X151637Y114447D01*
Y112448D01*
X150637Y111448D01*
X147638D01*
X149637D02*
X151637Y109449D01*
X157635Y115447D02*
X155635Y114447D01*
X153636Y112448D01*
Y110449D01*
X154636Y109449D01*
X156635D01*
X157635Y110449D01*
Y111448D01*
X156635Y112448D01*
X153636D01*
X172441Y51968D02*
Y57967D01*
X175440D01*
X176440Y56967D01*
Y54967D01*
X175440Y53968D01*
X172441D01*
X174440D02*
X176440Y51968D01*
X178439Y56967D02*
X179439Y57967D01*
X181438D01*
X182438Y56967D01*
Y55967D01*
X181438Y54967D01*
X182438Y53968D01*
Y52968D01*
X181438Y51968D01*
X179439D01*
X178439Y52968D01*
Y53968D01*
X179439Y54967D01*
X178439Y55967D01*
Y56967D01*
X179439Y54967D02*
X181438D01*
X112604Y61713D02*
X117603D01*
X118602Y62712D01*
Y64712D01*
X117603Y65711D01*
X112604D01*
X118602Y71709D02*
Y67711D01*
X114604Y71709D01*
X113604D01*
X112604Y70710D01*
Y68710D01*
X113604Y67711D01*
X100695Y57874D02*
X105693D01*
X106693Y58874D01*
Y60873D01*
X105693Y61873D01*
X100695D01*
X101695Y63872D02*
X100695Y64872D01*
Y66871D01*
X101695Y67871D01*
X102694D01*
X103694Y66871D01*
Y65871D01*
Y66871D01*
X104694Y67871D01*
X105693D01*
X106693Y66871D01*
Y64872D01*
X105693Y63872D01*
X138644Y68322D02*
Y72321D01*
X137645Y73321D01*
X135645D01*
X134646Y72321D01*
Y68322D01*
X135645Y67323D01*
X137645D01*
X136645Y69322D02*
X138644Y67323D01*
X137645D02*
X138644Y68322D01*
X140644Y67323D02*
X142643D01*
X141643D01*
Y73321D01*
X140644Y72321D01*
X72047Y10630D02*
X66049D01*
Y13629D01*
X67049Y14629D01*
X69048D01*
X70048Y13629D01*
Y10630D01*
Y12629D02*
X72047Y14629D01*
X67049Y16628D02*
X66049Y17628D01*
Y19627D01*
X67049Y20627D01*
X68049D01*
X69048Y19627D01*
Y18627D01*
Y19627D01*
X70048Y20627D01*
X71048D01*
X72047Y19627D01*
Y17628D01*
X71048Y16628D01*
X99606Y10630D02*
X93608D01*
Y13629D01*
X94608Y14629D01*
X96607D01*
X97607Y13629D01*
Y10630D01*
Y12629D02*
X99606Y14629D01*
X93608Y16628D02*
Y20627D01*
X94608D01*
X98607Y16628D01*
X99606D01*
X123684Y46549D02*
X121684D01*
X122684D01*
Y41551D01*
X121684Y40551D01*
X120685D01*
X119685Y41551D01*
X129682Y40551D02*
X125683D01*
X129682Y44550D01*
Y45550D01*
X128682Y46549D01*
X126683D01*
X125683Y45550D01*
X44156Y102061D02*
X42157D01*
X43156D01*
Y97063D01*
X42157Y96063D01*
X41157D01*
X40157Y97063D01*
X46156Y96063D02*
X48155D01*
X47155D01*
Y102061D01*
X46156Y101061D01*
D14*
X82133Y129528D02*
Y135526D01*
X79134Y132527D01*
X83133D01*
X89131Y135526D02*
X85132D01*
Y132527D01*
X87131Y133526D01*
X88131D01*
X89131Y132527D01*
Y130527D01*
X88131Y129528D01*
X86132D01*
X85132Y130527D01*
X99127Y129528D02*
X97128Y131527D01*
Y133526D01*
X99127Y135526D01*
X102126Y129528D02*
Y133526D01*
X103126D01*
X104126Y132527D01*
Y129528D01*
Y132527D01*
X105125Y133526D01*
X106125Y132527D01*
Y129528D01*
X108124D02*
Y133526D01*
X109124D01*
X110124Y132527D01*
Y129528D01*
Y132527D01*
X111124Y133526D01*
X112123Y132527D01*
Y129528D01*
X114122D02*
X116122Y131527D01*
Y133526D01*
X114122Y135526D01*
X190333Y40081D02*
X189333Y41081D01*
Y43080D01*
X190333Y44080D01*
X191333D01*
X192332Y43080D01*
Y42080D01*
Y43080D01*
X193332Y44080D01*
X194332D01*
X195331Y43080D01*
Y41081D01*
X194332Y40081D01*
X195331Y50078D02*
Y46079D01*
X191333Y50078D01*
X190333D01*
X189333Y49078D01*
Y47079D01*
X190333Y46079D01*
X195331Y52077D02*
X194332D01*
Y53077D01*
X195331D01*
Y52077D01*
X189333Y61074D02*
X190333Y59075D01*
X192332Y57076D01*
X194332D01*
X195331Y58075D01*
Y60075D01*
X194332Y61074D01*
X193332D01*
X192332Y60075D01*
Y57076D01*
X195331Y71071D02*
X193332Y69072D01*
X191333D01*
X189333Y71071D01*
X195331Y74070D02*
X191333D01*
Y75070D01*
X192332Y76069D01*
X195331D01*
X192332D01*
X191333Y77069D01*
X192332Y78069D01*
X195331D01*
Y80068D02*
X191333D01*
Y81068D01*
X192332Y82067D01*
X195331D01*
X192332D01*
X191333Y83067D01*
X192332Y84067D01*
X195331D01*
Y86066D02*
X193332Y88065D01*
X191333D01*
X189333Y86066D01*
D15*
X38451Y5511D02*
X35827D01*
Y3543D01*
X37139D01*
X35827D01*
Y1575D01*
X39762D02*
Y4199D01*
X41074Y5511D01*
X42386Y4199D01*
Y1575D01*
Y3543D01*
X39762D01*
X43698Y1575D02*
Y5511D01*
X45666D01*
X46322Y4855D01*
Y3543D01*
X45666Y2887D01*
X43698D01*
X45010D02*
X46322Y1575D01*
X47634D02*
Y4199D01*
X48946Y5511D01*
X50258Y4199D01*
Y1575D01*
Y3543D01*
X47634D01*
X51570Y5511D02*
X54194D01*
Y4855D01*
X51570Y2231D01*
Y1575D01*
X54194D01*
X59441Y5511D02*
Y1575D01*
X61409D01*
X62065Y2231D01*
Y2887D01*
X61409Y3543D01*
X59441D01*
X61409D01*
X62065Y4199D01*
Y4855D01*
X61409Y5511D01*
X59441D01*
X65345D02*
X64033D01*
X63377Y4855D01*
Y2231D01*
X64033Y1575D01*
X65345D01*
X66001Y2231D01*
Y4855D01*
X65345Y5511D01*
X67313Y1575D02*
Y5511D01*
X69281D01*
X69937Y4855D01*
Y3543D01*
X69281Y2887D01*
X67313D01*
X68625D02*
X69937Y1575D01*
X73872Y4855D02*
X73216Y5511D01*
X71904D01*
X71248Y4855D01*
Y2231D01*
X71904Y1575D01*
X73216D01*
X73872Y2231D01*
Y3543D01*
X72560D01*
X75184Y5511D02*
Y1575D01*
Y3543D01*
X77808D01*
Y5511D01*
Y1575D01*
X81744Y5511D02*
X79120D01*
Y1575D01*
X81744D01*
X79120Y3543D02*
X80432D01*
X83056Y5511D02*
X84368D01*
X83712D01*
Y1575D01*
X83056D01*
X84368D01*
D16*
X9449Y112598D02*
D03*
X186614Y15748D02*
D03*
D17*
X170866Y-0D02*
G03*
X186614Y15748I0J15748D01*
G01*
X9449Y15748D02*
G03*
X25197Y0I15748J0D01*
G01*
X186614Y112598D02*
G03*
X170866Y128347I-15748J0D01*
G01*
X25197D02*
G03*
X9449Y112598I0J-15748D01*
G01*
X25197Y128347D02*
X170866D01*
X9449Y15748D02*
Y112598D01*
X25197Y0D02*
X170866D01*
X186614Y15748D02*
Y112598D01*
X71063Y55315D02*
G03*
X71063Y55315I-1969J0D01*
G01*
X106102Y46457D02*
G03*
X106102Y46457I-1575J0D01*
G01*
X89370Y58760D02*
Y65650D01*
X85630Y58760D02*
Y65650D01*
X89370D01*
X85630Y58760D02*
X89370D01*
X53543Y24705D02*
X57284D01*
X53543Y31594D02*
X57284D01*
X53543Y24705D02*
Y31594D01*
X57284Y24705D02*
Y31594D01*
X80807Y31398D02*
X84547D01*
X80807Y24508D02*
X84547D01*
Y31398D01*
X80807Y24508D02*
Y31398D01*
X52461Y56595D02*
X56201D01*
X52461Y49705D02*
X56201D01*
Y56595D01*
X52461Y49705D02*
Y56595D01*
X107480Y16043D02*
X112992D01*
X107480Y24508D02*
X112992D01*
Y16043D02*
Y24508D01*
X107480Y16043D02*
Y24508D01*
X160236Y47933D02*
X168898D01*
X160236Y42618D02*
X168898D01*
X160236D02*
Y47933D01*
X168898Y42618D02*
Y47933D01*
X113091Y77559D02*
Y83071D01*
X121555Y77559D02*
Y83071D01*
X113091Y77559D02*
X121555D01*
X113091Y83071D02*
X121555D01*
X54035Y88779D02*
X59350D01*
X54035Y80512D02*
X59350D01*
Y88779D01*
X54035Y80512D02*
Y88779D01*
X173917Y66929D02*
Y72441D01*
X165453Y66929D02*
Y72441D01*
X173917D01*
X165453Y66929D02*
X173917D01*
X75689Y80315D02*
X81004D01*
X75689Y88976D02*
X81004D01*
X75689Y80315D02*
Y88976D01*
X81004Y80315D02*
Y88976D01*
X63878D02*
X69193D01*
X63878Y80315D02*
X69193D01*
Y88976D01*
X63878Y80315D02*
Y88976D01*
X65551Y51772D02*
X77756D01*
X65551Y63976D02*
X77756D01*
X65551Y51772D02*
Y63976D01*
X77756Y51772D02*
Y63976D01*
X95374Y103839D02*
X100689D01*
X95374Y95177D02*
X100689D01*
Y103839D01*
X95374Y95177D02*
Y103839D01*
X83957Y103937D02*
X89272D01*
X83957Y95276D02*
X89272D01*
Y103937D01*
X83957Y95276D02*
Y103937D01*
X134685Y109449D02*
Y114961D01*
X143268Y109449D02*
Y114961D01*
X134685D02*
X143268D01*
X134685Y109449D02*
X143268D01*
X160236Y52461D02*
X168898D01*
X160236Y57775D02*
X168898D01*
Y52461D02*
Y57775D01*
X160236Y52461D02*
Y57775D01*
X134646Y81988D02*
X143307D01*
X134646Y87303D02*
X143307D01*
Y81988D02*
Y87303D01*
X134646Y81988D02*
Y87303D01*
X134843Y95768D02*
Y101083D01*
X143110Y95768D02*
Y101083D01*
X134843D02*
X143110D01*
X134843Y95768D02*
X143110D01*
X93799Y24409D02*
Y33071D01*
X99114Y24409D02*
Y33071D01*
X93799Y24409D02*
X99114D01*
X93799Y33071D02*
X99114D01*
X66240Y24409D02*
Y33071D01*
X71555Y24409D02*
Y33071D01*
X66240Y24409D02*
X71555D01*
X66240Y33071D02*
X71555D01*
X132677Y53071D02*
X138189D01*
X132677Y65039D02*
X138189D01*
Y53071D02*
Y65039D01*
X132677Y53071D02*
Y65039D01*
X101378Y43307D02*
X109646D01*
X101378Y52756D02*
X109646D01*
X101378Y43307D02*
Y52756D01*
X109646Y43307D02*
Y52756D01*
X85630Y62205D02*
X89370D01*
X87500Y60335D02*
Y64075D01*
X55413Y26280D02*
Y30020D01*
X53543Y28150D02*
X57284D01*
X82677Y26083D02*
Y29823D01*
X80807Y27953D02*
X84547D01*
X54331Y51279D02*
Y55020D01*
X52461Y53150D02*
X56201D01*
X110236Y18307D02*
Y22244D01*
X108268Y20276D02*
X112205D01*
X164567Y43307D02*
Y47244D01*
X162598Y45276D02*
X166535D01*
X115354Y80315D02*
X119291D01*
X117323Y78347D02*
Y82284D01*
X56693Y82677D02*
Y86614D01*
X54724Y84646D02*
X58661D01*
X167717Y69685D02*
X171653D01*
X169685Y67716D02*
Y71653D01*
X78347Y82677D02*
Y86614D01*
X76378Y84646D02*
X80315D01*
X66535Y82677D02*
Y86614D01*
X64567Y84646D02*
X68504D01*
X71654Y55905D02*
Y59842D01*
X69685Y57874D02*
X73622D01*
X98032Y97539D02*
Y101476D01*
X96063Y99508D02*
X100000D01*
X86614Y97638D02*
Y101575D01*
X84646Y99606D02*
X88583D01*
X137008Y112205D02*
X140945D01*
X138977Y110236D02*
Y114173D01*
X164567Y53149D02*
Y57086D01*
X162598Y55118D02*
X166535D01*
X138976Y82677D02*
Y86614D01*
X137008Y84646D02*
X140945D01*
X137008Y98425D02*
X140945D01*
X138977Y96457D02*
Y100394D01*
X94488Y28740D02*
X98425D01*
X96457Y26772D02*
Y30709D01*
X66929Y28740D02*
X70866D01*
X68898Y26772D02*
Y30709D01*
X135433Y57087D02*
Y61024D01*
X133465Y59055D02*
X137402D01*
X105512Y46063D02*
Y50000D01*
X103543Y48031D02*
X107480D01*
D18*
X90453Y56299D02*
Y68110D01*
X84547Y56299D02*
Y68110D01*
X90453D01*
X84547Y56299D02*
X90453D01*
X52461Y22244D02*
X58366D01*
X52461Y34055D02*
X58366D01*
X52461Y22244D02*
Y34055D01*
X58366Y22244D02*
Y34055D01*
X79724Y33858D02*
X85630D01*
X79724Y22047D02*
X85630D01*
Y33858D01*
X79724Y22047D02*
Y33858D01*
X51378Y59055D02*
X57284D01*
X51378Y47244D02*
X57284D01*
Y59055D01*
X51378Y47244D02*
Y59055D01*
X103150Y14961D02*
X117323D01*
X103150Y25591D02*
X117323D01*
Y14961D02*
Y25591D01*
X103150Y14961D02*
Y25591D01*
X157874Y49016D02*
X171260D01*
X157874Y41535D02*
X171260D01*
X157874D02*
Y49016D01*
X171260Y41535D02*
Y49016D01*
X112008Y73228D02*
Y87402D01*
X122638Y73228D02*
Y87402D01*
X112008Y73228D02*
X122638D01*
X112008Y87402D02*
X122638D01*
X52953Y91339D02*
X60433D01*
X52953Y77953D02*
X60433D01*
Y91339D01*
X52953Y77953D02*
Y91339D01*
X175000Y62598D02*
Y76772D01*
X164370Y62598D02*
Y76772D01*
X175000D01*
X164370Y62598D02*
X175000D01*
X74606Y77953D02*
X82087D01*
X74606Y91339D02*
X82087D01*
X74606Y77953D02*
Y91339D01*
X82087Y77953D02*
Y91339D01*
X62795Y91339D02*
X70276D01*
X62795Y77953D02*
X70276D01*
Y91339D01*
X62795Y77953D02*
Y91339D01*
X64567Y45472D02*
X78740D01*
X64567Y70275D02*
X78740D01*
X64567Y45472D02*
Y70275D01*
X78740Y45472D02*
Y70275D01*
X94291Y106201D02*
X101772D01*
X94291Y92815D02*
X101772D01*
Y106201D01*
X94291Y92815D02*
Y106201D01*
X82874Y106299D02*
X90354D01*
X82874Y92913D02*
X90354D01*
Y106299D01*
X82874Y92913D02*
Y106299D01*
X132283Y108465D02*
Y115945D01*
X145669Y108465D02*
Y115945D01*
X132283D02*
X145669D01*
X132283Y108465D02*
X145669D01*
X157874Y51378D02*
X171260D01*
X157874Y58858D02*
X171260D01*
Y51378D02*
Y58858D01*
X157874Y51378D02*
Y58858D01*
X132283Y80906D02*
X145669D01*
X132283Y88386D02*
X145669D01*
Y80906D02*
Y88386D01*
X132283Y80906D02*
Y88386D01*
X132283Y94685D02*
Y102165D01*
X145669Y94685D02*
Y102165D01*
X132283D02*
X145669D01*
X132283Y94685D02*
X145669D01*
X92716Y22047D02*
Y35433D01*
X100197Y22047D02*
Y35433D01*
X92716Y22047D02*
X100197D01*
X92716Y35433D02*
X100197D01*
X65158Y22047D02*
Y35433D01*
X72638Y22047D02*
Y35433D01*
X65158Y22047D02*
X72638D01*
X65158Y35433D02*
X72638D01*
X127854Y52165D02*
X143012D01*
X127854Y65945D02*
X143012D01*
Y52165D02*
Y65945D01*
X127854Y52165D02*
Y65945D01*
X100394Y39272D02*
X110630D01*
X100394Y56791D02*
X110630D01*
X100394Y39272D02*
Y56791D01*
X110630Y39272D02*
Y56791D01*
M02*
