M48
;Layer_Color=9474304
;FILE_FORMAT=2:5
INCH,LZ
;TYPE=PLATED
T1F00S00C0.01968
T2F00S00C0.04016
T3F00S00C0.15748
%
T01
X0049508Y0025098
X0049409Y0030315
X0062205Y0037303
Y0041732
X0081496Y0049606
X008189Y0062992
X0072342Y0076279
X0072441Y0084646
X0062205Y0075197
X0108268Y0086221
X0119291Y0055118
X0124016Y0059449
X0114567Y0048031
X0096457Y0045276
Y0051181
X008937Y0014567
X0110236Y0012992
X0153937Y0055118
X0159843Y0062205
T02
X0044961Y0045866
Y0057677
Y0069488
Y0081299
X013189Y0035118
X0143701
T03
X0024409Y0015748
X0024803Y0112992
X0171653
Y0014961
M30
