G04*
G04 #@! TF.GenerationSoftware,Altium Limited,Altium Designer,18.1.11 (251)*
G04*
G04 Layer_Color=32896*
%FSLAX25Y25*%
%MOIN*%
G70*
G01*
G75*
%ADD14C,0.00591*%
%ADD16C,0.00394*%
%ADD17C,0.00394*%
%ADD18C,0.00197*%
D14*
X133857Y41339D02*
X129921D01*
Y43306D01*
X130577Y43962D01*
X131233D01*
X131889Y43306D01*
Y41339D01*
Y43306D01*
X132545Y43962D01*
X133201D01*
X133857Y43306D01*
Y41339D01*
X133201Y47898D02*
X133857Y47242D01*
Y45930D01*
X133201Y45274D01*
X132545D01*
X131889Y45930D01*
Y47242D01*
X131233Y47898D01*
X130577D01*
X129921Y47242D01*
Y45930D01*
X130577Y45274D01*
X129921Y49210D02*
X133857D01*
Y51178D01*
X133201Y51834D01*
X131889D01*
X131233Y51178D01*
Y49210D01*
X133857Y53146D02*
X129921D01*
Y55114D01*
X130577Y55770D01*
X133201D01*
X133857Y55114D01*
Y53146D01*
X129265Y57082D02*
Y59705D01*
X133857Y62985D02*
Y61673D01*
X133201Y61017D01*
X130577D01*
X129921Y61673D01*
Y62985D01*
X130577Y63641D01*
X133201D01*
X133857Y62985D01*
Y64953D02*
X130577D01*
X129921Y65609D01*
Y66921D01*
X130577Y67577D01*
X133857D01*
Y68889D02*
Y71513D01*
Y70201D01*
X129921D01*
X145668Y41339D02*
X141732D01*
Y43306D01*
X142388Y43962D01*
X143044D01*
X143700Y43306D01*
Y41339D01*
Y43306D01*
X144356Y43962D01*
X145012D01*
X145668Y43306D01*
Y41339D01*
X145012Y47898D02*
X145668Y47242D01*
Y45930D01*
X145012Y45274D01*
X144356D01*
X143700Y45930D01*
Y47242D01*
X143044Y47898D01*
X142388D01*
X141732Y47242D01*
Y45930D01*
X142388Y45274D01*
X141732Y49210D02*
X145668D01*
Y51178D01*
X145012Y51834D01*
X143700D01*
X143044Y51178D01*
Y49210D01*
X145668Y53146D02*
X141732D01*
Y55114D01*
X142388Y55770D01*
X145012D01*
X145668Y55114D01*
Y53146D01*
X141076Y57082D02*
Y59705D01*
X145668Y62985D02*
Y61673D01*
X145012Y61017D01*
X142388D01*
X141732Y61673D01*
Y62985D01*
X142388Y63641D01*
X145012D01*
X145668Y62985D01*
Y64953D02*
X142388D01*
X141732Y65609D01*
Y66921D01*
X142388Y67577D01*
X145668D01*
Y68889D02*
Y71513D01*
Y70201D01*
X141732D01*
X79266Y45406D02*
X79922Y46062D01*
X81234D01*
X81890Y45406D01*
Y42782D01*
X81234Y42126D01*
X79922D01*
X79266Y42782D01*
X77954Y42126D02*
Y46062D01*
X75986D01*
X75330Y45406D01*
Y44094D01*
X75986Y43438D01*
X77954D01*
X76642D02*
X75330Y42126D01*
X74018Y46062D02*
X71394D01*
X72706D01*
Y42126D01*
X70082Y41470D02*
X67459D01*
X63523Y45406D02*
X64179Y46062D01*
X65491D01*
X66147Y45406D01*
Y44750D01*
X65491Y44094D01*
X64179D01*
X63523Y43438D01*
Y42782D01*
X64179Y42126D01*
X65491D01*
X66147Y42782D01*
X59587Y46062D02*
X62211D01*
Y42126D01*
X59587D01*
X62211Y44094D02*
X60899D01*
X58275Y42126D02*
Y46062D01*
X55651Y42126D01*
Y46062D01*
X51716Y45406D02*
X52372Y46062D01*
X53684D01*
X54340Y45406D01*
Y44750D01*
X53684Y44094D01*
X52372D01*
X51716Y43438D01*
Y42782D01*
X52372Y42126D01*
X53684D01*
X54340Y42782D01*
X89370Y57873D02*
Y53937D01*
X87402D01*
X86746Y54593D01*
Y55249D01*
X87402Y55905D01*
X89370D01*
X87402D01*
X86746Y56561D01*
Y57217D01*
X87402Y57873D01*
X89370D01*
X85434Y53937D02*
Y57873D01*
X83467D01*
X82810Y57217D01*
Y55905D01*
X83467Y55249D01*
X85434D01*
X84122D02*
X82810Y53937D01*
X81499D02*
Y56561D01*
X80187Y57873D01*
X78875Y56561D01*
Y53937D01*
Y55905D01*
X81499D01*
X77563Y57873D02*
Y53937D01*
Y55249D01*
X74939Y57873D01*
X76907Y55905D01*
X74939Y53937D01*
X71003Y57873D02*
X73627D01*
Y53937D01*
X71003D01*
X73627Y55905D02*
X72315D01*
X69691Y53281D02*
X67068D01*
X63132Y57217D02*
X63788Y57873D01*
X65100D01*
X65756Y57217D01*
Y56561D01*
X65100Y55905D01*
X63788D01*
X63132Y55249D01*
Y54593D01*
X63788Y53937D01*
X65100D01*
X65756Y54593D01*
X59196Y57873D02*
X61820D01*
Y53937D01*
X59196D01*
X61820Y55905D02*
X60508D01*
X57884Y53937D02*
Y57873D01*
X55260Y53937D01*
Y57873D01*
X51325Y57217D02*
X51981Y57873D01*
X53293D01*
X53948Y57217D01*
Y56561D01*
X53293Y55905D01*
X51981D01*
X51325Y55249D01*
Y54593D01*
X51981Y53937D01*
X53293D01*
X53948Y54593D01*
X56038Y70078D02*
X58661D01*
Y68110D01*
X57349Y68765D01*
X56694D01*
X56038Y68110D01*
Y66798D01*
X56694Y66142D01*
X58005D01*
X58661Y66798D01*
X54726Y70078D02*
Y67454D01*
X53414Y66142D01*
X52102Y67454D01*
Y70078D01*
X59187Y80839D02*
X59843Y81495D01*
X61155D01*
X61811Y80839D01*
Y78215D01*
X61155Y77559D01*
X59843D01*
X59187Y78215D01*
Y79527D01*
X60499D01*
X57875Y77559D02*
Y81495D01*
X55251Y77559D01*
Y81495D01*
X53939D02*
Y77559D01*
X51972D01*
X51316Y78215D01*
Y80839D01*
X51972Y81495D01*
X53939D01*
D16*
X9449Y112598D02*
D03*
X186614Y15748D02*
D03*
D17*
X170866Y-0D02*
G03*
X186614Y15748I0J15748D01*
G01*
X9449Y15748D02*
G03*
X25197Y0I15748J0D01*
G01*
X186614Y112598D02*
G03*
X170866Y128347I-15748J0D01*
G01*
X25197D02*
G03*
X9449Y112598I0J-15748D01*
G01*
X25197Y128347D02*
X170866D01*
X9449Y15748D02*
Y112598D01*
X25197Y0D02*
X170866D01*
X186614Y15748D02*
Y112598D01*
X71063Y55315D02*
G03*
X71063Y55315I-1969J0D01*
G01*
X106102Y46457D02*
G03*
X106102Y46457I-1575J0D01*
G01*
X89370Y58760D02*
Y65650D01*
X85630Y58760D02*
Y65650D01*
X89370D01*
X85630Y58760D02*
X89370D01*
X53543Y24705D02*
X57284D01*
X53543Y31594D02*
X57284D01*
X53543Y24705D02*
Y31594D01*
X57284Y24705D02*
Y31594D01*
X80807Y31398D02*
X84547D01*
X80807Y24508D02*
X84547D01*
Y31398D01*
X80807Y24508D02*
Y31398D01*
X53642Y56595D02*
X57382D01*
X53642Y49705D02*
X57382D01*
Y56595D01*
X53642Y49705D02*
Y56595D01*
X107480Y16043D02*
X112992D01*
X107480Y24508D02*
X112992D01*
Y16043D02*
Y24508D01*
X107480Y16043D02*
Y24508D01*
X160236Y47933D02*
X168898D01*
X160236Y42618D02*
X168898D01*
X160236D02*
Y47933D01*
X168898Y42618D02*
Y47933D01*
X113091Y77559D02*
Y83071D01*
X121555Y77559D02*
Y83071D01*
X113091Y77559D02*
X121555D01*
X113091Y83071D02*
X121555D01*
X54035Y88779D02*
X59350D01*
X54035Y80512D02*
X59350D01*
Y88779D01*
X54035Y80512D02*
Y88779D01*
X173917Y66929D02*
Y72441D01*
X165453Y66929D02*
Y72441D01*
X173917D01*
X165453Y66929D02*
X173917D01*
X75689Y80315D02*
X81004D01*
X75689Y88976D02*
X81004D01*
X75689Y80315D02*
Y88976D01*
X81004Y80315D02*
Y88976D01*
X63878D02*
X69193D01*
X63878Y80315D02*
X69193D01*
Y88976D01*
X63878Y80315D02*
Y88976D01*
X65551Y51772D02*
X77756D01*
X65551Y63976D02*
X77756D01*
X65551Y51772D02*
Y63976D01*
X77756Y51772D02*
Y63976D01*
X95374Y103839D02*
X100689D01*
X95374Y95177D02*
X100689D01*
Y103839D01*
X95374Y95177D02*
Y103839D01*
X83957Y103937D02*
X89272D01*
X83957Y95276D02*
X89272D01*
Y103937D01*
X83957Y95276D02*
Y103937D01*
X134685Y109449D02*
Y114961D01*
X143268Y109449D02*
Y114961D01*
X134685D02*
X143268D01*
X134685Y109449D02*
X143268D01*
X160236Y52461D02*
X168898D01*
X160236Y57775D02*
X168898D01*
Y52461D02*
Y57775D01*
X160236Y52461D02*
Y57775D01*
X134646Y81988D02*
X143307D01*
X134646Y87303D02*
X143307D01*
Y81988D02*
Y87303D01*
X134646Y81988D02*
Y87303D01*
X134843Y95768D02*
Y101083D01*
X143110Y95768D02*
Y101083D01*
X134843D02*
X143110D01*
X134843Y95768D02*
X143110D01*
X93799Y24409D02*
Y33071D01*
X99114Y24409D02*
Y33071D01*
X93799Y24409D02*
X99114D01*
X93799Y33071D02*
X99114D01*
X66240Y24409D02*
Y33071D01*
X71555Y24409D02*
Y33071D01*
X66240Y24409D02*
X71555D01*
X66240Y33071D02*
X71555D01*
X132677Y53071D02*
X138189D01*
X132677Y65039D02*
X138189D01*
Y53071D02*
Y65039D01*
X132677Y53071D02*
Y65039D01*
X101378Y43307D02*
X109646D01*
X101378Y52756D02*
X109646D01*
X101378Y43307D02*
Y52756D01*
X109646Y43307D02*
Y52756D01*
X85630Y62205D02*
X89370D01*
X87500Y60335D02*
Y64075D01*
X55413Y26280D02*
Y30020D01*
X53543Y28150D02*
X57284D01*
X82677Y26083D02*
Y29823D01*
X80807Y27953D02*
X84547D01*
X55512Y51279D02*
Y55020D01*
X53642Y53150D02*
X57382D01*
X110236Y18307D02*
Y22244D01*
X108268Y20276D02*
X112205D01*
X164567Y43307D02*
Y47244D01*
X162598Y45276D02*
X166535D01*
X115354Y80315D02*
X119291D01*
X117323Y78347D02*
Y82284D01*
X56693Y82677D02*
Y86614D01*
X54724Y84646D02*
X58661D01*
X167717Y69685D02*
X171653D01*
X169685Y67716D02*
Y71653D01*
X78347Y82677D02*
Y86614D01*
X76378Y84646D02*
X80315D01*
X66535Y82677D02*
Y86614D01*
X64567Y84646D02*
X68504D01*
X71654Y55905D02*
Y59842D01*
X69685Y57874D02*
X73622D01*
X98032Y97539D02*
Y101476D01*
X96063Y99508D02*
X100000D01*
X86614Y97638D02*
Y101575D01*
X84646Y99606D02*
X88583D01*
X137008Y112205D02*
X140945D01*
X138977Y110236D02*
Y114173D01*
X164567Y53149D02*
Y57086D01*
X162598Y55118D02*
X166535D01*
X138976Y82677D02*
Y86614D01*
X137008Y84646D02*
X140945D01*
X137008Y98425D02*
X140945D01*
X138977Y96457D02*
Y100394D01*
X94488Y28740D02*
X98425D01*
X96457Y26772D02*
Y30709D01*
X66929Y28740D02*
X70866D01*
X68898Y26772D02*
Y30709D01*
X135433Y57087D02*
Y61024D01*
X133465Y59055D02*
X137402D01*
X105512Y46063D02*
Y50000D01*
X103543Y48031D02*
X107480D01*
D18*
X90453Y56299D02*
Y68110D01*
X84547Y56299D02*
Y68110D01*
X90453D01*
X84547Y56299D02*
X90453D01*
X52461Y22244D02*
X58366D01*
X52461Y34055D02*
X58366D01*
X52461Y22244D02*
Y34055D01*
X58366Y22244D02*
Y34055D01*
X79724Y33858D02*
X85630D01*
X79724Y22047D02*
X85630D01*
Y33858D01*
X79724Y22047D02*
Y33858D01*
X52559Y59055D02*
X58465D01*
X52559Y47244D02*
X58465D01*
Y59055D01*
X52559Y47244D02*
Y59055D01*
X103150Y14961D02*
X117323D01*
X103150Y25591D02*
X117323D01*
Y14961D02*
Y25591D01*
X103150Y14961D02*
Y25591D01*
X157874Y49016D02*
X171260D01*
X157874Y41535D02*
X171260D01*
X157874D02*
Y49016D01*
X171260Y41535D02*
Y49016D01*
X112008Y73228D02*
Y87402D01*
X122638Y73228D02*
Y87402D01*
X112008Y73228D02*
X122638D01*
X112008Y87402D02*
X122638D01*
X52953Y91339D02*
X60433D01*
X52953Y77953D02*
X60433D01*
Y91339D01*
X52953Y77953D02*
Y91339D01*
X175000Y62598D02*
Y76772D01*
X164370Y62598D02*
Y76772D01*
X175000D01*
X164370Y62598D02*
X175000D01*
X74606Y77953D02*
X82087D01*
X74606Y91339D02*
X82087D01*
X74606Y77953D02*
Y91339D01*
X82087Y77953D02*
Y91339D01*
X62795Y91339D02*
X70276D01*
X62795Y77953D02*
X70276D01*
Y91339D01*
X62795Y77953D02*
Y91339D01*
X64567Y45472D02*
X78740D01*
X64567Y70275D02*
X78740D01*
X64567Y45472D02*
Y70275D01*
X78740Y45472D02*
Y70275D01*
X94291Y106201D02*
X101772D01*
X94291Y92815D02*
X101772D01*
Y106201D01*
X94291Y92815D02*
Y106201D01*
X82874Y106299D02*
X90354D01*
X82874Y92913D02*
X90354D01*
Y106299D01*
X82874Y92913D02*
Y106299D01*
X132283Y108465D02*
Y115945D01*
X145669Y108465D02*
Y115945D01*
X132283D02*
X145669D01*
X132283Y108465D02*
X145669D01*
X157874Y51378D02*
X171260D01*
X157874Y58858D02*
X171260D01*
Y51378D02*
Y58858D01*
X157874Y51378D02*
Y58858D01*
X132283Y80906D02*
X145669D01*
X132283Y88386D02*
X145669D01*
Y80906D02*
Y88386D01*
X132283Y80906D02*
Y88386D01*
X132283Y94685D02*
Y102165D01*
X145669Y94685D02*
Y102165D01*
X132283D02*
X145669D01*
X132283Y94685D02*
X145669D01*
X92716Y22047D02*
Y35433D01*
X100197Y22047D02*
Y35433D01*
X92716Y22047D02*
X100197D01*
X92716Y35433D02*
X100197D01*
X65158Y22047D02*
Y35433D01*
X72638Y22047D02*
Y35433D01*
X65158Y22047D02*
X72638D01*
X65158Y35433D02*
X72638D01*
X127854Y52165D02*
X143012D01*
X127854Y65945D02*
X143012D01*
Y52165D02*
Y65945D01*
X127854Y52165D02*
Y65945D01*
X100394Y39272D02*
X110630D01*
X100394Y56791D02*
X110630D01*
X100394Y39272D02*
Y56791D01*
X110630Y39272D02*
Y56791D01*
M02*
