G04*
G04 #@! TF.GenerationSoftware,Altium Limited,Altium Designer,19.1.8 (144)*
G04*
G04 Layer_Physical_Order=2*
G04 Layer_Color=16711680*
%FSLAX25Y25*%
%MOIN*%
G70*
G01*
G75*
%ADD12C,0.00787*%
%ADD13C,0.01000*%
%ADD53C,0.06299*%
%ADD54C,0.11811*%
%ADD55C,0.02756*%
%ADD56C,0.23622*%
G36*
X163889Y125588D02*
X164858Y124285D01*
X164763Y123794D01*
X164100Y123389D01*
X162567Y122079D01*
X161257Y120545D01*
X160204Y118826D01*
X159432Y116963D01*
X158961Y115002D01*
X158842Y113492D01*
X171653D01*
Y112992D01*
X172153D01*
Y100181D01*
X173664Y100300D01*
X175625Y100770D01*
X177488Y101542D01*
X179207Y102596D01*
X180013Y103284D01*
X180510Y103228D01*
X183125Y99709D01*
Y25641D01*
X181622Y23618D01*
X181122Y23601D01*
X180740Y24047D01*
X179207Y25357D01*
X177488Y26411D01*
X175625Y27182D01*
X173664Y27653D01*
X172153Y27772D01*
Y14961D01*
X171653D01*
Y14461D01*
X158842D01*
X158961Y12950D01*
X159432Y10990D01*
X160204Y9127D01*
X161257Y7407D01*
X162567Y5874D01*
X162905Y5585D01*
X162732Y5116D01*
X32457D01*
X32272Y5616D01*
X33496Y6661D01*
X34806Y8195D01*
X35859Y9914D01*
X36631Y11777D01*
X37102Y13738D01*
X37221Y15248D01*
X24409D01*
Y15748D01*
X23910D01*
Y28559D01*
X22399Y28440D01*
X20438Y27970D01*
X18575Y27198D01*
X16856Y26144D01*
X15323Y24835D01*
X15185Y24674D01*
X14686Y24691D01*
X12653Y27426D01*
Y99709D01*
X15532Y103582D01*
X16029Y103639D01*
X17250Y102596D01*
X18969Y101542D01*
X20832Y100770D01*
X22793Y100300D01*
X24303Y100181D01*
Y112992D01*
X24803D01*
Y113492D01*
X37614D01*
X37496Y115002D01*
X37025Y116963D01*
X36253Y118826D01*
X35199Y120545D01*
X33890Y122079D01*
X32357Y123389D01*
X31228Y124080D01*
X31133Y124571D01*
X31889Y125588D01*
X163889D01*
Y125588D01*
D02*
G37*
%LPC*%
G36*
X171153Y112492D02*
X158842D01*
X158961Y110982D01*
X159432Y109021D01*
X160204Y107158D01*
X161257Y105439D01*
X162567Y103905D01*
X164100Y102596D01*
X165820Y101542D01*
X167683Y100770D01*
X169643Y100300D01*
X171153Y100181D01*
Y112492D01*
D02*
G37*
G36*
X37614D02*
X25303D01*
Y100181D01*
X26813Y100300D01*
X28774Y100770D01*
X30637Y101542D01*
X32357Y102596D01*
X33890Y103905D01*
X35199Y105439D01*
X36253Y107158D01*
X37025Y109021D01*
X37496Y110982D01*
X37614Y112492D01*
D02*
G37*
G36*
X72941Y86971D02*
Y85146D01*
X74766D01*
X74681Y85574D01*
X74155Y86360D01*
X73369Y86886D01*
X72941Y86971D01*
D02*
G37*
G36*
X71941D02*
X71513Y86886D01*
X70727Y86360D01*
X70201Y85574D01*
X70116Y85146D01*
X71941D01*
Y86971D01*
D02*
G37*
G36*
X74766Y84146D02*
X72941D01*
Y82321D01*
X73369Y82406D01*
X74155Y82931D01*
X74681Y83718D01*
X74766Y84146D01*
D02*
G37*
G36*
X71941D02*
X70116D01*
X70201Y83718D01*
X70727Y82931D01*
X71513Y82406D01*
X71941Y82321D01*
Y84146D01*
D02*
G37*
G36*
X45461Y85419D02*
Y81799D01*
X49080D01*
X49003Y82383D01*
X48585Y83392D01*
X47920Y84259D01*
X47053Y84924D01*
X46044Y85342D01*
X45461Y85419D01*
D02*
G37*
G36*
X44461D02*
X43877Y85342D01*
X42868Y84924D01*
X42001Y84259D01*
X41336Y83392D01*
X40918Y82383D01*
X40841Y81799D01*
X44461D01*
Y85419D01*
D02*
G37*
G36*
X49080Y80799D02*
X45461D01*
Y77180D01*
X46044Y77257D01*
X47053Y77675D01*
X47920Y78340D01*
X48585Y79207D01*
X49003Y80216D01*
X49080Y80799D01*
D02*
G37*
G36*
X44461D02*
X40841D01*
X40918Y80216D01*
X41336Y79207D01*
X42001Y78340D01*
X42868Y77675D01*
X43877Y77257D01*
X44461Y77180D01*
Y80799D01*
D02*
G37*
G36*
X27953Y79774D02*
X26599Y79640D01*
X25297Y79246D01*
X24098Y78604D01*
X23046Y77741D01*
X22183Y76690D01*
X21542Y75490D01*
X21147Y74189D01*
X21014Y72835D01*
X21147Y71481D01*
X21542Y70179D01*
X22183Y68980D01*
X23046Y67928D01*
X24098Y67065D01*
X25297Y66424D01*
X26599Y66029D01*
X27953Y65896D01*
X29307Y66029D01*
X30608Y66424D01*
X31808Y67065D01*
X32859Y67928D01*
X33722Y68980D01*
X34363Y70179D01*
X34758Y71481D01*
X34892Y72835D01*
X34758Y74189D01*
X34363Y75490D01*
X33722Y76690D01*
X32859Y77741D01*
X31808Y78604D01*
X30608Y79246D01*
X29307Y79640D01*
X27953Y79774D01*
D02*
G37*
G36*
X44961Y73674D02*
X43877Y73531D01*
X42868Y73113D01*
X42001Y72448D01*
X41336Y71581D01*
X40918Y70572D01*
X40775Y69488D01*
X40918Y68405D01*
X41336Y67396D01*
X42001Y66529D01*
X42868Y65864D01*
X43877Y65446D01*
X44961Y65303D01*
X46044Y65446D01*
X47053Y65864D01*
X47920Y66529D01*
X48585Y67396D01*
X49003Y68405D01*
X49146Y69488D01*
X49003Y70572D01*
X48585Y71581D01*
X47920Y72448D01*
X47053Y73113D01*
X46044Y73531D01*
X44961Y73674D01*
D02*
G37*
G36*
X159843Y64629D02*
X158915Y64445D01*
X158128Y63919D01*
X158004Y63734D01*
X149213D01*
X148627Y63618D01*
X148131Y63286D01*
X145823Y60978D01*
X125854D01*
X125730Y61163D01*
X124944Y61689D01*
X124016Y61873D01*
X123088Y61689D01*
X122301Y61163D01*
X121776Y60377D01*
X121591Y59449D01*
X121776Y58521D01*
X122301Y57734D01*
X123088Y57209D01*
X124016Y57024D01*
X124944Y57209D01*
X125730Y57734D01*
X125854Y57919D01*
X146457D01*
X147042Y58036D01*
X147538Y58367D01*
X149846Y60675D01*
X158004D01*
X158128Y60490D01*
X158915Y59965D01*
X159843Y59780D01*
X160770Y59965D01*
X161557Y60490D01*
X162083Y61277D01*
X162267Y62205D01*
X162083Y63133D01*
X161557Y63919D01*
X160770Y64445D01*
X159843Y64629D01*
D02*
G37*
G36*
X72342Y78704D02*
X71415Y78519D01*
X70628Y77994D01*
X70103Y77207D01*
X69918Y76279D01*
X70103Y75352D01*
X70628Y74565D01*
X70813Y74441D01*
Y71358D01*
X70929Y70773D01*
X71261Y70277D01*
X79627Y61911D01*
X79853Y61760D01*
X80175Y61278D01*
X80962Y60752D01*
X81890Y60568D01*
X82818Y60752D01*
X83604Y61278D01*
X84130Y62064D01*
X84314Y62992D01*
X84130Y63920D01*
X83604Y64706D01*
X82818Y65232D01*
X81890Y65417D01*
X80962Y65232D01*
X80764Y65100D01*
X73872Y71992D01*
Y74441D01*
X74057Y74565D01*
X74582Y75352D01*
X74767Y76279D01*
X74582Y77207D01*
X74057Y77994D01*
X73270Y78519D01*
X72342Y78704D01*
D02*
G37*
G36*
X154437Y57443D02*
Y55618D01*
X156262D01*
X156177Y56046D01*
X155651Y56832D01*
X154865Y57358D01*
X154437Y57443D01*
D02*
G37*
G36*
X153437D02*
X153009Y57358D01*
X152223Y56832D01*
X151697Y56046D01*
X151612Y55618D01*
X153437D01*
Y57443D01*
D02*
G37*
G36*
X119791D02*
Y55618D01*
X121616D01*
X121531Y56046D01*
X121006Y56832D01*
X120219Y57358D01*
X119791Y57443D01*
D02*
G37*
G36*
X118791D02*
X118363Y57358D01*
X117577Y56832D01*
X117051Y56046D01*
X116966Y55618D01*
X118791D01*
Y57443D01*
D02*
G37*
G36*
X44961Y61863D02*
X43877Y61720D01*
X42868Y61302D01*
X42001Y60637D01*
X41336Y59770D01*
X40918Y58760D01*
X40775Y57677D01*
X40918Y56594D01*
X41336Y55585D01*
X42001Y54718D01*
X42868Y54053D01*
X43877Y53635D01*
X44961Y53492D01*
X46044Y53635D01*
X47053Y54053D01*
X47920Y54718D01*
X48585Y55585D01*
X49003Y56594D01*
X49146Y57677D01*
X49003Y58760D01*
X48585Y59770D01*
X47920Y60637D01*
X47053Y61302D01*
X46044Y61720D01*
X44961Y61863D01*
D02*
G37*
G36*
X156262Y54618D02*
X154437D01*
Y52793D01*
X154865Y52878D01*
X155651Y53404D01*
X156177Y54190D01*
X156262Y54618D01*
D02*
G37*
G36*
X153437D02*
X151612D01*
X151697Y54190D01*
X152223Y53404D01*
X153009Y52878D01*
X153437Y52793D01*
Y54618D01*
D02*
G37*
G36*
X121616D02*
X119791D01*
Y52793D01*
X120219Y52878D01*
X121006Y53404D01*
X121531Y54190D01*
X121616Y54618D01*
D02*
G37*
G36*
X118791D02*
X116966D01*
X117051Y54190D01*
X117577Y53404D01*
X118363Y52878D01*
X118791Y52793D01*
Y54618D01*
D02*
G37*
G36*
X81996Y51931D02*
Y50106D01*
X83821D01*
X83736Y50534D01*
X83210Y51321D01*
X82424Y51846D01*
X81996Y51931D01*
D02*
G37*
G36*
X80996D02*
X80568Y51846D01*
X79782Y51321D01*
X79256Y50534D01*
X79171Y50106D01*
X80996D01*
Y51931D01*
D02*
G37*
G36*
X62205Y77621D02*
X61277Y77437D01*
X60490Y76911D01*
X59965Y76125D01*
X59780Y75197D01*
X59965Y74269D01*
X60490Y73482D01*
X60784Y73286D01*
Y46457D01*
X60892Y45913D01*
X61200Y45452D01*
X62022Y44630D01*
X61857Y44088D01*
X61277Y43972D01*
X60490Y43447D01*
X59965Y42660D01*
X59780Y41732D01*
X59965Y40804D01*
X60490Y40018D01*
X60865Y39768D01*
Y39268D01*
X60490Y39018D01*
X60367Y38833D01*
X56398D01*
X55812Y38716D01*
X55316Y38385D01*
X49628Y32696D01*
X49409Y32739D01*
X48482Y32555D01*
X47695Y32029D01*
X47170Y31243D01*
X46985Y30315D01*
X47170Y29387D01*
X47695Y28600D01*
X48482Y28075D01*
X49101Y27952D01*
Y27442D01*
X48580Y27338D01*
X47793Y26813D01*
X47268Y26026D01*
X47183Y25598D01*
X51833D01*
X51748Y26026D01*
X51222Y26813D01*
X50436Y27338D01*
X49817Y27462D01*
Y27971D01*
X50337Y28075D01*
X51124Y28600D01*
X51649Y29387D01*
X51834Y30315D01*
X51791Y30533D01*
X57031Y35774D01*
X60367D01*
X60490Y35589D01*
X61277Y35063D01*
X62205Y34879D01*
X63133Y35063D01*
X63919Y35589D01*
X64445Y36375D01*
X64629Y37303D01*
X64445Y38231D01*
X63919Y39018D01*
X63545Y39268D01*
Y39768D01*
X63919Y40018D01*
X64043Y40203D01*
X92913D01*
X93499Y40319D01*
X93995Y40651D01*
X96238Y42895D01*
X96457Y42851D01*
X97385Y43036D01*
X98171Y43561D01*
X98697Y44348D01*
X98881Y45276D01*
X98697Y46203D01*
X98171Y46990D01*
X97385Y47516D01*
X96457Y47700D01*
X95529Y47516D01*
X95466Y47473D01*
X95147Y47862D01*
X96111Y48825D01*
X96457Y48757D01*
X97385Y48941D01*
X98171Y49467D01*
X98697Y50253D01*
X98881Y51181D01*
X98697Y52109D01*
X98171Y52895D01*
X97385Y53421D01*
X96457Y53606D01*
X95529Y53421D01*
X94742Y52895D01*
X94217Y52109D01*
X94032Y51181D01*
X94101Y50835D01*
X89569Y46303D01*
X64368D01*
X63626Y47045D01*
Y73286D01*
X63919Y73482D01*
X64445Y74269D01*
X64629Y75197D01*
X64445Y76125D01*
X63919Y76911D01*
X63133Y77437D01*
X62205Y77621D01*
D02*
G37*
G36*
X27953Y61270D02*
X26599Y61136D01*
X25297Y60742D01*
X24098Y60100D01*
X23046Y59237D01*
X22183Y58186D01*
X21542Y56986D01*
X21147Y55685D01*
X21014Y54331D01*
X21147Y52977D01*
X21542Y51675D01*
X22183Y50476D01*
X23046Y49424D01*
X24098Y48561D01*
X25297Y47920D01*
X26599Y47525D01*
X27953Y47392D01*
X29307Y47525D01*
X30608Y47920D01*
X31808Y48561D01*
X32859Y49424D01*
X33722Y50476D01*
X34363Y51675D01*
X34758Y52977D01*
X34892Y54331D01*
X34758Y55685D01*
X34363Y56986D01*
X33722Y58186D01*
X32859Y59237D01*
X31808Y60100D01*
X30608Y60742D01*
X29307Y61136D01*
X27953Y61270D01*
D02*
G37*
G36*
X83821Y49106D02*
X81996D01*
Y47281D01*
X82424Y47366D01*
X83210Y47892D01*
X83736Y48678D01*
X83821Y49106D01*
D02*
G37*
G36*
X80996D02*
X79171D01*
X79256Y48678D01*
X79782Y47892D01*
X80568Y47366D01*
X80996Y47281D01*
Y49106D01*
D02*
G37*
G36*
X108268Y88645D02*
X107340Y88460D01*
X106553Y87935D01*
X106028Y87148D01*
X105843Y86221D01*
X106028Y85293D01*
X106553Y84506D01*
X106738Y84382D01*
Y74803D01*
X106855Y74218D01*
X107186Y73722D01*
X113038Y67870D01*
Y49869D01*
X112853Y49746D01*
X112327Y48959D01*
X112142Y48031D01*
X112186Y47813D01*
X109155Y44782D01*
X108823Y44286D01*
X108707Y43701D01*
Y14830D01*
X108522Y14706D01*
X107996Y13920D01*
X107812Y12992D01*
X107996Y12064D01*
X108522Y11278D01*
X109308Y10752D01*
X110236Y10568D01*
X111164Y10752D01*
X111951Y11278D01*
X112476Y12064D01*
X112661Y12992D01*
X112476Y13920D01*
X111951Y14706D01*
X111766Y14830D01*
Y43067D01*
X114349Y45650D01*
X114567Y45607D01*
X115495Y45792D01*
X116281Y46317D01*
X116807Y47104D01*
X116991Y48031D01*
X116807Y48959D01*
X116281Y49746D01*
X116096Y49869D01*
Y68504D01*
X115980Y69089D01*
X115648Y69585D01*
X109797Y75437D01*
Y84382D01*
X109982Y84506D01*
X110508Y85293D01*
X110692Y86221D01*
X110508Y87148D01*
X109982Y87935D01*
X109196Y88460D01*
X108268Y88645D01*
D02*
G37*
G36*
X44961Y50052D02*
X43877Y49909D01*
X42868Y49491D01*
X42001Y48826D01*
X41336Y47959D01*
X40918Y46949D01*
X40775Y45866D01*
X40918Y44783D01*
X41336Y43773D01*
X42001Y42907D01*
X42868Y42242D01*
X43877Y41823D01*
X44961Y41681D01*
X46044Y41823D01*
X47053Y42242D01*
X47920Y42907D01*
X48585Y43773D01*
X49003Y44783D01*
X49146Y45866D01*
X49003Y46949D01*
X48585Y47959D01*
X47920Y48826D01*
X47053Y49491D01*
X46044Y49909D01*
X44961Y50052D01*
D02*
G37*
G36*
X132390Y39238D02*
Y35618D01*
X136009D01*
X135933Y36201D01*
X135514Y37211D01*
X134849Y38078D01*
X133983Y38743D01*
X132973Y39161D01*
X132390Y39238D01*
D02*
G37*
G36*
X131390D02*
X130807Y39161D01*
X129797Y38743D01*
X128930Y38078D01*
X128265Y37211D01*
X127847Y36201D01*
X127770Y35618D01*
X131390D01*
Y39238D01*
D02*
G37*
G36*
X136009Y34618D02*
X132390D01*
Y30999D01*
X132973Y31075D01*
X133983Y31493D01*
X134849Y32159D01*
X135514Y33026D01*
X135933Y34035D01*
X136009Y34618D01*
D02*
G37*
G36*
X131390D02*
X127770D01*
X127847Y34035D01*
X128265Y33026D01*
X128930Y32159D01*
X129797Y31493D01*
X130807Y31075D01*
X131390Y30999D01*
Y34618D01*
D02*
G37*
G36*
X143701Y39304D02*
X142618Y39161D01*
X141608Y38743D01*
X140741Y38078D01*
X140076Y37211D01*
X139658Y36201D01*
X139515Y35118D01*
X139658Y34035D01*
X140076Y33026D01*
X140741Y32159D01*
X141608Y31493D01*
X142618Y31075D01*
X143701Y30933D01*
X144784Y31075D01*
X145794Y31493D01*
X146660Y32159D01*
X147326Y33026D01*
X147744Y34035D01*
X147886Y35118D01*
X147744Y36201D01*
X147326Y37211D01*
X146660Y38078D01*
X145794Y38743D01*
X144784Y39161D01*
X143701Y39304D01*
D02*
G37*
G36*
X51833Y24598D02*
X50008D01*
Y22773D01*
X50436Y22858D01*
X51222Y23384D01*
X51748Y24171D01*
X51833Y24598D01*
D02*
G37*
G36*
X49008D02*
X47183D01*
X47268Y24171D01*
X47793Y23384D01*
X48580Y22858D01*
X49008Y22773D01*
Y24598D01*
D02*
G37*
G36*
X24909Y28559D02*
Y16248D01*
X37221D01*
X37102Y17758D01*
X36631Y19719D01*
X35859Y21582D01*
X34806Y23301D01*
X33496Y24835D01*
X31963Y26144D01*
X30244Y27198D01*
X28381Y27970D01*
X26420Y28440D01*
X24909Y28559D01*
D02*
G37*
G36*
X171153Y27772D02*
X169643Y27653D01*
X167683Y27182D01*
X165820Y26411D01*
X164100Y25357D01*
X162567Y24047D01*
X161257Y22514D01*
X160204Y20795D01*
X159432Y18932D01*
X158961Y16971D01*
X158842Y15461D01*
X171153D01*
Y27772D01*
D02*
G37*
G36*
X89870Y16892D02*
Y15067D01*
X91695D01*
X91610Y15495D01*
X91084Y16281D01*
X90298Y16807D01*
X89870Y16892D01*
D02*
G37*
G36*
X88870D02*
X88442Y16807D01*
X87656Y16281D01*
X87130Y15495D01*
X87045Y15067D01*
X88870D01*
Y16892D01*
D02*
G37*
G36*
X91695Y14067D02*
X89870D01*
Y12242D01*
X90298Y12327D01*
X91084Y12853D01*
X91610Y13639D01*
X91695Y14067D01*
D02*
G37*
G36*
X88870D02*
X87045D01*
X87130Y13639D01*
X87656Y12853D01*
X88442Y12327D01*
X88870Y12242D01*
Y14067D01*
D02*
G37*
G36*
X137795Y25049D02*
X136442Y24916D01*
X135140Y24521D01*
X133940Y23880D01*
X132889Y23017D01*
X132026Y21965D01*
X131385Y20766D01*
X130990Y19464D01*
X130856Y18110D01*
X130990Y16757D01*
X131385Y15455D01*
X132026Y14255D01*
X132889Y13204D01*
X133940Y12341D01*
X135140Y11700D01*
X136442Y11305D01*
X137795Y11171D01*
X139149Y11305D01*
X140451Y11700D01*
X141650Y12341D01*
X142702Y13204D01*
X143565Y14255D01*
X144206Y15455D01*
X144601Y16757D01*
X144734Y18110D01*
X144601Y19464D01*
X144206Y20766D01*
X143565Y21965D01*
X142702Y23017D01*
X141650Y23880D01*
X140451Y24521D01*
X139149Y24916D01*
X137795Y25049D01*
D02*
G37*
%LPD*%
D12*
X90158Y44882D02*
X96457Y51181D01*
X62205Y46457D02*
Y75197D01*
Y46457D02*
X63779Y44882D01*
X90158D01*
D13*
X72342Y71358D02*
X80709Y62992D01*
X72342Y71358D02*
Y76279D01*
X49409Y30315D02*
X56398Y37303D01*
X62205D01*
X80709Y62992D02*
X81890D01*
X92913Y41732D02*
X96457Y45276D01*
X62205Y41732D02*
X92913D01*
X110236Y43701D02*
X114567Y48031D01*
X110236Y12992D02*
Y43701D01*
X114567Y48031D02*
Y68504D01*
X108268Y74803D02*
X114567Y68504D01*
X108268Y74803D02*
Y86221D01*
X146457Y59449D02*
X149213Y62205D01*
X124016Y59449D02*
X146457D01*
X149213Y62205D02*
X159843D01*
X108253Y86207D02*
X108268Y86221D01*
D53*
X131890Y35118D02*
D03*
X143701D02*
D03*
X44961Y81299D02*
D03*
Y69488D02*
D03*
Y57677D02*
D03*
Y45866D02*
D03*
D54*
X137795Y18110D02*
D03*
X27953Y54331D02*
D03*
Y72835D02*
D03*
D55*
X72342Y76279D02*
D03*
X49409Y30315D02*
D03*
X62205Y37303D02*
D03*
X81890Y62992D02*
D03*
X62205Y41732D02*
D03*
Y75197D02*
D03*
X81496Y49606D02*
D03*
X72441Y84646D02*
D03*
X110236Y12992D02*
D03*
X114567Y48031D02*
D03*
X96457Y51181D02*
D03*
Y45276D02*
D03*
X119291Y55118D02*
D03*
X124016Y59449D02*
D03*
X159843Y62205D02*
D03*
X108268Y86221D02*
D03*
X153937Y55118D02*
D03*
X89370Y14567D02*
D03*
X49508Y25098D02*
D03*
D56*
X24803Y112992D02*
D03*
X171653D02*
D03*
Y14961D02*
D03*
X24409Y15748D02*
D03*
M02*
