M48
;Layer_Color=9474304
;FILE_FORMAT=2:5
INCH,LZ
;TYPE=PLATED
T1F00S00C0.01968
T2F00S00C0.04016
T3F00S00C0.16535
%
T01
X0049508Y0025098
X0049409Y0030315
X0064862Y0041831
X0068799Y0038484
X0081496Y0048425
X0081693Y0054823
X0097244Y0051181
Y0045276
Y0059449
X0118504Y0055118
X0124016Y0059449
X0114567Y0048031
Y0012992
X0110236
X008937Y0014567
X0072441Y0075197
Y0084646
X0062205Y0075197
X0108267Y0083464
X0116732Y0090945
X0135827Y0091732
X0123622Y0106693
X0153937Y0055118
X0159843Y0062205
T02
X0044567Y0043898
Y0055709
Y006752
Y0079331
X013189Y0035118
X0143701
T03
X0025197Y0015748
Y0112598
X0170866
Y0015748
M30
