G04*
G04 #@! TF.GenerationSoftware,Altium Limited,Altium Designer,19.1.8 (144)*
G04*
G04 Layer_Color=8421504*
%FSLAX25Y25*%
%MOIN*%
G70*
G01*
G75*
%ADD16R,0.03740X0.03347*%
%ADD17R,0.03740X0.03740*%
%ADD18R,0.03347X0.01378*%
%ADD19R,0.04724X0.05315*%
%ADD20R,0.01378X0.03347*%
%ADD21R,0.05512X0.04724*%
%ADD22R,0.01575X0.03347*%
%ADD23R,0.05315X0.04724*%
%ADD24O,0.01772X0.05709*%
%ADD25R,0.05315X0.04528*%
%ADD26R,0.03150X0.03150*%
%ADD27R,0.04528X0.05512*%
%ADD28R,0.04724X0.05512*%
%ADD29R,0.03543X0.03150*%
%ADD30O,0.00984X0.02953*%
D16*
X55413Y25000D02*
D03*
Y31299D02*
D03*
X82677Y31102D02*
D03*
Y24803D02*
D03*
D17*
X54331Y56102D02*
D03*
Y50197D02*
D03*
D18*
X114567Y22835D02*
D03*
Y17717D02*
D03*
X105905D02*
D03*
Y20276D02*
D03*
Y22835D02*
D03*
D19*
X161221Y45276D02*
D03*
X167913D02*
D03*
X167913Y55118D02*
D03*
X161221D02*
D03*
X142323Y84646D02*
D03*
X135630D02*
D03*
D20*
X119882Y75984D02*
D03*
X114764D02*
D03*
Y84646D02*
D03*
X117323D02*
D03*
X119882D02*
D03*
D21*
X56693Y87992D02*
D03*
Y81299D02*
D03*
D22*
X167126Y74114D02*
D03*
X172244D02*
D03*
Y65256D02*
D03*
X169685D02*
D03*
X167126D02*
D03*
D23*
X78347Y81299D02*
D03*
Y87992D02*
D03*
X66535Y87992D02*
D03*
Y81299D02*
D03*
X96457Y25394D02*
D03*
Y32087D02*
D03*
X68898Y25394D02*
D03*
Y32087D02*
D03*
D24*
X67815Y49213D02*
D03*
X70374D02*
D03*
X72933D02*
D03*
X75492D02*
D03*
X67815Y66536D02*
D03*
X70374D02*
D03*
X72933D02*
D03*
X75492D02*
D03*
D25*
X98032Y102953D02*
D03*
Y96063D02*
D03*
X86614Y103051D02*
D03*
Y96161D02*
D03*
D26*
X114370Y96850D02*
D03*
X108465D02*
D03*
X114370Y113386D02*
D03*
X108465D02*
D03*
D27*
X135433Y112205D02*
D03*
X142520D02*
D03*
D28*
X135630Y98425D02*
D03*
X142323D02*
D03*
D29*
X141142Y59055D02*
D03*
X129724Y55315D02*
D03*
Y62795D02*
D03*
D30*
X102559Y41929D02*
D03*
X104527D02*
D03*
X106496D02*
D03*
X108465D02*
D03*
X102559Y54134D02*
D03*
X104527D02*
D03*
X106496D02*
D03*
X108465D02*
D03*
M02*
