G04*
G04 #@! TF.GenerationSoftware,Altium Limited,Altium Designer,19.1.8 (144)*
G04*
G04 Layer_Color=8388736*
%FSLAX25Y25*%
%MOIN*%
G70*
G01*
G75*
%ADD29R,0.04147X0.02178*%
%ADD30R,0.05524X0.06115*%
%ADD31R,0.02178X0.04147*%
%ADD32R,0.06312X0.05524*%
%ADD33R,0.02375X0.04147*%
%ADD34R,0.06115X0.05524*%
%ADD35O,0.02572X0.06509*%
%ADD36R,0.06115X0.05328*%
%ADD37R,0.03950X0.03950*%
%ADD38R,0.05328X0.06312*%
%ADD39R,0.05524X0.06312*%
%ADD40R,0.04343X0.03950*%
%ADD41O,0.01784X0.03753*%
%ADD42C,0.07099*%
%ADD43C,0.12611*%
%ADD44C,0.03556*%
%ADD45C,0.24422*%
D29*
X114567Y22835D02*
D03*
Y17717D02*
D03*
X105905D02*
D03*
Y20276D02*
D03*
Y22835D02*
D03*
D30*
X161221Y45276D02*
D03*
X167913D02*
D03*
X167913Y55118D02*
D03*
X161221D02*
D03*
X142323Y84646D02*
D03*
X135630D02*
D03*
D31*
X119882Y75984D02*
D03*
X114764D02*
D03*
Y84646D02*
D03*
X117323D02*
D03*
X119882D02*
D03*
D32*
X57480Y87992D02*
D03*
Y81299D02*
D03*
D33*
X167126Y74114D02*
D03*
X172244D02*
D03*
Y65256D02*
D03*
X169685D02*
D03*
X167126D02*
D03*
D34*
X77165Y87992D02*
D03*
Y81299D02*
D03*
X66929Y87992D02*
D03*
Y81299D02*
D03*
X96457Y25394D02*
D03*
Y32087D02*
D03*
X68898Y32087D02*
D03*
Y25394D02*
D03*
X55118Y32087D02*
D03*
Y25394D02*
D03*
X82677D02*
D03*
Y32087D02*
D03*
D35*
X64665Y49213D02*
D03*
X67224D02*
D03*
X69783D02*
D03*
X72343D02*
D03*
X64665Y66536D02*
D03*
X67224D02*
D03*
X69783D02*
D03*
X72343D02*
D03*
D36*
X98032Y102953D02*
D03*
Y96063D02*
D03*
X86614Y103051D02*
D03*
Y96161D02*
D03*
D37*
X114370Y96850D02*
D03*
X108465D02*
D03*
X114370Y113386D02*
D03*
X108465D02*
D03*
D38*
X135433Y112205D02*
D03*
X142520D02*
D03*
D39*
X135630Y98425D02*
D03*
X142323D02*
D03*
D40*
X141142Y59055D02*
D03*
X129724Y55315D02*
D03*
Y62795D02*
D03*
D41*
X102559Y41929D02*
D03*
X104527D02*
D03*
X106496D02*
D03*
X108465D02*
D03*
X102559Y54134D02*
D03*
X104527D02*
D03*
X106496D02*
D03*
X108465D02*
D03*
D42*
X131890Y35118D02*
D03*
X143701D02*
D03*
X44961Y81299D02*
D03*
Y69488D02*
D03*
Y57677D02*
D03*
Y45866D02*
D03*
D43*
X137795Y18110D02*
D03*
X27953Y54331D02*
D03*
Y72835D02*
D03*
D44*
X110236Y12992D02*
D03*
X114567Y48031D02*
D03*
X96457Y51181D02*
D03*
Y45276D02*
D03*
X119291Y55118D02*
D03*
X124016Y59449D02*
D03*
X62205Y75197D02*
D03*
X72835Y74803D02*
D03*
X80709Y62992D02*
D03*
X59055Y42126D02*
D03*
X159843Y62205D02*
D03*
X108268Y86221D02*
D03*
X153937Y55118D02*
D03*
X89370Y28740D02*
D03*
X46063Y27559D02*
D03*
X62205Y28740D02*
D03*
D45*
X24803Y112992D02*
D03*
X171653D02*
D03*
Y14961D02*
D03*
X24409Y15748D02*
D03*
M02*
